<?xml version="1.0" encoding="UTF-8" standalone="no"?>
<svg xmlns="http://www.w3.org/2000/svg" xmlns:xlink="http://www.w3.org/1999/xlink" contentStyleType="text/css" height="1080.1914px" preserveAspectRatio="none" style="width:3123px;height:1080px;background:#FFFFFF;" version="1.1" viewBox="0 0 3123 1080" width="3123.1826px" zoomAndPan="magnify"><defs/><g><rect fill="#FFFFFF" height="33.7116" id="_title" style="stroke:#FFFFFF;stroke-width:0.0;" width="170.4071" x="1472.1276" y="9.4671"/><text fill="#000000" font-family="Verdana" font-size="20.8275" font-weight="bold" lengthAdjust="spacing" textLength="160.94" x="1476.8611" y="33.5332">UML Diagram</text><!--MD5=[792aaa989a38c9d91242de084f86eaf5]
cluster CC3K--><g id="cluster_CC3K"><path d="M12.7805,56.1376 L74.3164,56.1376 A3.5501,3.5501 0 0 1 76.6832,58.5044 L83.3101,86.0624 L3114.1889,86.0624 A2.3668,2.3668 0 0 1 3116.5557,88.4292 L3116.5557,1071.953 A2.3668,2.3668 0 0 1 3114.1889,1074.3198 L12.7805,1074.3198 A2.3668,2.3668 0 0 1 10.4138,1071.953 L10.4138,58.5044 A2.3668,2.3668 0 0 1 12.7805,56.1376 " fill="#FFFFFF" style="stroke:#000000;stroke-width:0.9467058502264639;"/><line style="stroke:#000000;stroke-width:0.9467058502264639;" x1="10.4138" x2="83.3101" y1="86.0624" y2="86.0624"/><text fill="#000000" font-family="Verdana" font-size="20.8275" font-weight="bold" lengthAdjust="spacing" textLength="60.5892" x="14.2006" y="77.3636">CC3K</text></g><!--MD5=[3eff9d4279c887ef9286477750bdaaff]
class Character--><g id="elem_Character"><rect codeLine="11" fill="#FFFFFF" height="365.6503" id="Character" rx="2.3668" ry="2.3668" style="stroke:#000000;stroke-width:0.9467058502264639;" width="219.6358" x="2312.8024" y="97.7927"/><ellipse cx="2385.4621" cy="111.0466" fill="#FFFFFF" rx="8.5204" ry="8.5204" style="stroke:#000000;stroke-width:0.9467058502264639;"/><path d="M2387.6809,106.9491 C2386.7934,106.5349 2386.2313,106.4018 2385.4029,106.4018 C2382.9178,106.4018 2381.0244,108.3692 2381.0244,110.943 L2381.0244,112.0081 C2381.0244,114.4488 2383.0213,116.2387 2385.7579,116.2387 C2386.9117,116.2387 2388.0063,115.9576 2388.7164,115.4399 C2389.2637,115.0553 2389.5743,114.6263 2389.5743,114.2565 C2389.5743,113.8275 2389.2045,113.4577 2388.7607,113.4577 C2388.5537,113.4577 2388.3614,113.5317 2388.1838,113.7092 C2387.7549,114.1677 2387.7549,114.1677 2387.5774,114.2565 C2387.178,114.508 2386.5271,114.6263 2385.8023,114.6263 C2383.8645,114.6263 2382.6367,113.5908 2382.6367,111.9785 L2382.6367,110.943 C2382.6367,109.2567 2383.8201,108.0141 2385.4621,108.0141 C2386.0094,108.0141 2386.5863,108.1621 2387.03,108.3987 C2387.4886,108.665 2387.6513,108.8721 2387.7401,109.2567 C2387.7992,109.6413 2387.8288,109.7596 2387.962,109.878 C2388.0951,110.0111 2388.317,110.1146 2388.5241,110.1146 C2388.7755,110.1146 2389.027,109.9815 2389.1897,109.7744 C2389.2933,109.6265 2389.3229,109.449 2389.3229,109.0496 L2389.3229,107.7035 C2389.3229,107.2893 2389.3081,107.171 2389.2193,107.0231 C2389.0714,106.7716 2388.8051,106.6385 2388.5241,106.6385 C2388.243,106.6385 2388.0507,106.7272 2387.8436,107.0231 L2387.6809,106.9491 Z " fill="#000000"/><text fill="#000000" font-family="Verdana" font-size="13.2539" lengthAdjust="spacing" textLength="67.2161" x="2402.0294" y="115.6349">Character</text><line style="stroke:#000000;stroke-width:0.9467058502264639;" x1="2313.7491" x2="2531.4914" y1="124.3004" y2="124.3004"/><text fill="#000000" font-family="Verdana" font-size="13.2539" lengthAdjust="spacing" textLength="86.1502" x="2318.4826" y="140.3898">-hp : Integer</text><text fill="#000000" font-family="Verdana" font-size="13.2539" lengthAdjust="spacing" textLength="90.8838" x="2318.4826" y="155.8182">-atk : Integer</text><text fill="#000000" font-family="Verdana" font-size="13.2539" lengthAdjust="spacing" textLength="90.8838" x="2318.4826" y="171.2465">-def : Integer</text><text fill="#000000" font-family="Verdana" font-size="13.2539" lengthAdjust="spacing" textLength="99.4041" x="2318.4826" y="186.6749">-xPos : Integer</text><text fill="#000000" font-family="Verdana" font-size="13.2539" lengthAdjust="spacing" textLength="99.4041" x="2318.4826" y="202.1032">-yPos : Integer</text><text fill="#000000" font-family="Verdana" font-size="13.2539" lengthAdjust="spacing" textLength="134.4322" x="2318.4826" y="217.5316">-symbol : Character</text><line style="stroke:#000000;stroke-width:0.9467058502264639;" x1="2313.7491" x2="2531.4914" y1="224.4442" y2="224.4442"/><text fill="#000000" font-family="Verdana" font-size="13.2539" lengthAdjust="spacing" textLength="122.1251" x="2318.4826" y="240.5335">+setHp(int) : Void</text><text fill="#000000" font-family="Verdana" font-size="13.2539" lengthAdjust="spacing" textLength="127.8053" x="2318.4826" y="255.9619">+setAtk(int) : Void</text><text fill="#000000" font-family="Verdana" font-size="13.2539" lengthAdjust="spacing" textLength="127.8053" x="2318.4826" y="271.3902">+setDef(int) : Void</text><text fill="#000000" font-family="Verdana" font-size="13.2539" lengthAdjust="spacing" textLength="112.658" x="2318.4826" y="286.8186">+setX(int) : Void</text><text fill="#000000" font-family="Verdana" font-size="13.2539" lengthAdjust="spacing" textLength="111.7113" x="2318.4826" y="302.2469">+setY(int) : Void</text><text fill="#000000" font-family="Verdana" font-size="13.2539" lengthAdjust="spacing" textLength="124.9652" x="2318.4826" y="317.6753">+getHp() : Integer</text><text fill="#000000" font-family="Verdana" font-size="13.2539" lengthAdjust="spacing" textLength="130.6454" x="2318.4826" y="333.1036">+getAtk() : Integer</text><text fill="#000000" font-family="Verdana" font-size="13.2539" lengthAdjust="spacing" textLength="130.6454" x="2318.4826" y="348.532">+getDef() : Integer</text><text fill="#000000" font-family="Verdana" font-size="13.2539" lengthAdjust="spacing" textLength="115.4981" x="2318.4826" y="363.9603">+getX() : Integer</text><text fill="#000000" font-family="Verdana" font-size="13.2539" lengthAdjust="spacing" textLength="114.5514" x="2318.4826" y="379.3887">+getY() : Integer</text><text fill="#000000" font-family="Verdana" font-size="13.2539" lengthAdjust="spacing" textLength="174.1939" x="2318.4826" y="394.817">+getSymbol() : Character</text><text fill="#000000" font-family="Verdana" font-size="13.2539" lengthAdjust="spacing" textLength="208.2753" x="2318.4826" y="410.2454">+move(Integer, Integer) : Void</text><text fill="#000000" font-family="Verdana" font-size="13.2539" lengthAdjust="spacing" textLength="174.1939" x="2318.4826" y="425.6737">+attack(Character) : Void</text><text fill="#000000" font-family="Verdana" font-size="13.2539" lengthAdjust="spacing" textLength="199.7549" x="2318.4826" y="441.1021">+takeDamage(Integer) : Void</text><text fill="#000000" font-family="Verdana" font-size="13.2539" lengthAdjust="spacing" textLength="130.6454" x="2318.4826" y="456.5304">+isAlive() : Boolean</text></g><!--MD5=[2cb47ba637a0d19583e6199456f6ad0b]
class Player--><g id="elem_Player"><rect codeLine="39" fill="#FFFFFF" height="165.0818" id="Player" rx="2.3668" ry="2.3668" style="stroke:#000000;stroke-width:0.9467058502264639;" width="185.5543" x="2543.7986" y="535.6441"/><ellipse cx="2612.1981" cy="548.898" fill="#FFFFFF" rx="8.5204" ry="8.5204" style="stroke:#000000;stroke-width:0.9467058502264639;"/><path d="M2614.417,544.8006 C2613.5294,544.3864 2612.9673,544.2532 2612.1389,544.2532 C2609.6538,544.2532 2607.7604,546.2206 2607.7604,548.7945 L2607.7604,549.8595 C2607.7604,552.3002 2609.7574,554.0901 2612.494,554.0901 C2613.6478,554.0901 2614.7424,553.8091 2615.4524,553.2913 C2615.9997,552.9067 2616.3104,552.4777 2616.3104,552.1079 C2616.3104,551.679 2615.9406,551.3092 2615.4968,551.3092 C2615.2897,551.3092 2615.0974,551.3831 2614.9199,551.5606 C2614.4909,552.0192 2614.4909,552.0192 2614.3134,552.1079 C2613.914,552.3594 2613.2632,552.4777 2612.5383,552.4777 C2610.6006,552.4777 2609.3728,551.4423 2609.3728,549.8299 L2609.3728,548.7945 C2609.3728,547.1082 2610.5562,545.8656 2612.1981,545.8656 C2612.7454,545.8656 2613.3223,546.0135 2613.7661,546.2502 C2614.2247,546.5165 2614.3874,546.7236 2614.4761,547.1082 C2614.5353,547.4928 2614.5649,547.6111 2614.698,547.7294 C2614.8311,547.8626 2615.053,547.9661 2615.2601,547.9661 C2615.5116,547.9661 2615.7631,547.833 2615.9258,547.6259 C2616.0293,547.478 2616.0589,547.3005 2616.0589,546.9011 L2616.0589,545.555 C2616.0589,545.1408 2616.0441,545.0224 2615.9554,544.8745 C2615.8074,544.623 2615.5412,544.4899 2615.2601,544.4899 C2614.9791,544.4899 2614.7868,544.5787 2614.5797,544.8745 L2614.417,544.8006 Z " fill="#000000"/><text fill="#000000" font-family="Verdana" font-size="13.2539" lengthAdjust="spacing" textLength="41.6551" x="2628.7655" y="553.4864">Player</text><line style="stroke:#000000;stroke-width:0.9467058502264639;" x1="2544.7453" x2="2728.4063" y1="562.1519" y2="562.1519"/><text fill="#000000" font-family="Verdana" font-size="13.2539" lengthAdjust="spacing" textLength="97.5107" x="2549.4789" y="578.2413">-gold : Integer</text><text fill="#000000" font-family="Verdana" font-size="13.2539" lengthAdjust="spacing" textLength="143.8993" x="2549.4789" y="593.6696">-hasBarrierSuit : Bool</text><line style="stroke:#000000;stroke-width:0.9467058502264639;" x1="2544.7453" x2="2728.4063" y1="600.5822" y2="600.5822"/><text fill="#000000" font-family="Verdana" font-size="13.2539" lengthAdjust="spacing" textLength="125.9119" x="2549.4789" y="616.6716">+addGold(Integer)</text><text fill="#000000" font-family="Verdana" font-size="13.2539" lengthAdjust="spacing" textLength="137.2723" x="2549.4789" y="632.1">+getGold() : Integer</text><text fill="#000000" font-family="Verdana" font-size="13.2539" lengthAdjust="spacing" textLength="114.5514" x="2549.4789" y="647.5283">+useGold() : void</text><text fill="#000000" font-family="Verdana" font-size="13.2539" lengthAdjust="spacing" textLength="148.6328" x="2549.4789" y="662.9567">+updateStats()  : void</text><text fill="#000000" font-family="Verdana" font-size="13.2539" lengthAdjust="spacing" textLength="172.3005" x="2549.4789" y="678.385">+usePotion(Potion) : void</text><text fill="#000000" font-family="Verdana" font-size="13.2539" lengthAdjust="spacing" textLength="174.1939" x="2549.4789" y="693.8134">+getSymbol() : Character</text></g><!--MD5=[2e69174041fa7eb3bebc5f460ee56291]
class Human--><g id="elem_Human"><rect codeLine="53" fill="#FFFFFF" height="41.6551" id="Human" rx="2.3668" ry="2.3668" style="stroke:#000000;stroke-width:0.9467058502264639;" width="72.8964" x="3028.0387" y="819.1825"/><ellipse cx="3040.3458" cy="832.4364" fill="#FFFFFF" rx="8.5204" ry="8.5204" style="stroke:#000000;stroke-width:0.9467058502264639;"/><path d="M3042.5647,828.339 C3041.6771,827.9248 3041.115,827.7916 3040.2867,827.7916 C3037.8016,827.7916 3035.9082,829.759 3035.9082,832.3329 L3035.9082,833.3979 C3035.9082,835.8386 3037.9051,837.6285 3040.6417,837.6285 C3041.7955,837.6285 3042.8901,837.3475 3043.6001,836.8297 C3044.1475,836.4451 3044.4581,836.0162 3044.4581,835.6463 C3044.4581,835.2174 3044.0883,834.8476 3043.6445,834.8476 C3043.4374,834.8476 3043.2451,834.9215 3043.0676,835.099 C3042.6386,835.5576 3042.6386,835.5576 3042.4611,835.6463 C3042.0617,835.8978 3041.4109,836.0162 3040.6861,836.0162 C3038.7483,836.0162 3037.5205,834.9807 3037.5205,833.3683 L3037.5205,832.3329 C3037.5205,830.6466 3038.7039,829.404 3040.3458,829.404 C3040.8932,829.404 3041.4701,829.5519 3041.9138,829.7886 C3042.3724,830.0549 3042.5351,830.262 3042.6238,830.6466 C3042.683,831.0312 3042.7126,831.1495 3042.8457,831.2678 C3042.9789,831.401 3043.2007,831.5045 3043.4078,831.5045 C3043.6593,831.5045 3043.9108,831.3714 3044.0735,831.1643 C3044.177,831.0164 3044.2066,830.8389 3044.2066,830.4395 L3044.2066,829.0934 C3044.2066,828.6792 3044.1918,828.5608 3044.1031,828.4129 C3043.9552,828.1615 3043.6889,828.0283 3043.4078,828.0283 C3043.1268,828.0283 3042.9345,828.1171 3042.7274,828.4129 L3042.5647,828.339 Z " fill="#000000"/><text fill="#000000" font-family="Verdana" font-size="13.2539" lengthAdjust="spacing" textLength="46.3886" x="3051.7063" y="837.0248">Human</text><line style="stroke:#000000;stroke-width:0.9467058502264639;" x1="3028.9854" x2="3099.9883" y1="845.6903" y2="845.6903"/><line style="stroke:#000000;stroke-width:0.9467058502264639;" x1="3028.9854" x2="3099.9883" y1="853.2639" y2="853.2639"/></g><!--MD5=[23fd6e2d610f17f7b0c016502f515a17]
class Dwarf--><g id="elem_Dwarf"><rect codeLine="58" fill="#FFFFFF" height="57.0834" id="Dwarf" rx="2.3668" ry="2.3668" style="stroke:#000000;stroke-width:0.9467058502264639;" width="149.5795" x="2282.5078" y="811.6089"/><ellipse cx="2333.8666" cy="824.8628" fill="#FFFFFF" rx="8.5204" ry="8.5204" style="stroke:#000000;stroke-width:0.9467058502264639;"/><path d="M2336.0854,820.7653 C2335.1979,820.3511 2334.6358,820.218 2333.8074,820.218 C2331.3223,820.218 2329.4289,822.1854 2329.4289,824.7592 L2329.4289,825.8243 C2329.4289,828.265 2331.4259,830.0549 2334.1624,830.0549 C2335.3162,830.0549 2336.4109,829.7738 2337.1209,829.2561 C2337.6682,828.8715 2337.9789,828.4425 2337.9789,828.0727 C2337.9789,827.6437 2337.609,827.2739 2337.1653,827.2739 C2336.9582,827.2739 2336.7659,827.3479 2336.5884,827.5254 C2336.1594,827.9839 2336.1594,827.9839 2335.9819,828.0727 C2335.5825,828.3242 2334.9316,828.4425 2334.2068,828.4425 C2332.269,828.4425 2331.0413,827.407 2331.0413,825.7947 L2331.0413,824.7592 C2331.0413,823.0729 2332.2247,821.8304 2333.8666,821.8304 C2334.4139,821.8304 2334.9908,821.9783 2335.4346,822.215 C2335.8931,822.4812 2336.0559,822.6883 2336.1446,823.0729 C2336.2038,823.4575 2336.2334,823.5758 2336.3665,823.6942 C2336.4996,823.8273 2336.7215,823.9309 2336.9286,823.9309 C2337.1801,823.9309 2337.4315,823.7977 2337.5943,823.5906 C2337.6978,823.4427 2337.7274,823.2652 2337.7274,822.8658 L2337.7274,821.5197 C2337.7274,821.1055 2337.7126,820.9872 2337.6238,820.8393 C2337.4759,820.5878 2337.2097,820.4547 2336.9286,820.4547 C2336.6475,820.4547 2336.4552,820.5434 2336.2482,820.8393 L2336.0854,820.7653 Z " fill="#000000"/><text fill="#000000" font-family="Verdana" font-size="13.2539" lengthAdjust="spacing" textLength="39.7616" x="2350.4339" y="829.4512">Dwarf</text><line style="stroke:#000000;stroke-width:0.9467058502264639;" x1="2283.4545" x2="2431.1406" y1="838.1167" y2="838.1167"/><line style="stroke:#000000;stroke-width:0.9467058502264639;" x1="2283.4545" x2="2431.1406" y1="845.6903" y2="845.6903"/><text fill="#000000" font-family="Verdana" font-size="13.2539" lengthAdjust="spacing" textLength="138.2191" x="2288.188" y="861.7797">+addGold() : Integer</text></g><!--MD5=[1add97151753c0fb34b998a49b664f10]
class Elf--><g id="elem_Elf"><rect codeLine="63" fill="#FFFFFF" height="57.0834" id="Elf" rx="2.3668" ry="2.3668" style="stroke:#000000;stroke-width:0.9467058502264639;" width="156.2065" x="2465.6954" y="811.6089"/><ellipse cx="2531.2548" cy="824.8628" fill="#FFFFFF" rx="8.5204" ry="8.5204" style="stroke:#000000;stroke-width:0.9467058502264639;"/><path d="M2533.4736,820.7653 C2532.5861,820.3511 2532.024,820.218 2531.1956,820.218 C2528.7105,820.218 2526.8171,822.1854 2526.8171,824.7592 L2526.8171,825.8243 C2526.8171,828.265 2528.814,830.0549 2531.5506,830.0549 C2532.7044,830.0549 2533.799,829.7738 2534.5091,829.2561 C2535.0564,828.8715 2535.367,828.4425 2535.367,828.0727 C2535.367,827.6437 2534.9972,827.2739 2534.5534,827.2739 C2534.3464,827.2739 2534.1541,827.3479 2533.9765,827.5254 C2533.5476,827.9839 2533.5476,827.9839 2533.3701,828.0727 C2532.9707,828.3242 2532.3198,828.4425 2531.595,828.4425 C2529.6572,828.4425 2528.4294,827.407 2528.4294,825.7947 L2528.4294,824.7592 C2528.4294,823.0729 2529.6128,821.8304 2531.2548,821.8304 C2531.8021,821.8304 2532.379,821.9783 2532.8227,822.215 C2533.2813,822.4812 2533.444,822.6883 2533.5328,823.0729 C2533.5919,823.4575 2533.6215,823.5758 2533.7547,823.6942 C2533.8878,823.8273 2534.1097,823.9309 2534.3168,823.9309 C2534.5682,823.9309 2534.8197,823.7977 2534.9824,823.5906 C2535.086,823.4427 2535.1156,823.2652 2535.1156,822.8658 L2535.1156,821.5197 C2535.1156,821.1055 2535.1008,820.9872 2535.012,820.8393 C2534.8641,820.5878 2534.5978,820.4547 2534.3168,820.4547 C2534.0357,820.4547 2533.8434,820.5434 2533.6363,820.8393 L2533.4736,820.7653 Z " fill="#000000"/><text fill="#000000" font-family="Verdana" font-size="13.2539" lengthAdjust="spacing" textLength="17.9874" x="2547.8221" y="829.4512">Elf</text><line style="stroke:#000000;stroke-width:0.9467058502264639;" x1="2466.6421" x2="2620.9551" y1="838.1167" y2="838.1167"/><line style="stroke:#000000;stroke-width:0.9467058502264639;" x1="2466.6421" x2="2620.9551" y1="845.6903" y2="845.6903"/><text fill="#000000" font-family="Verdana" font-size="13.2539" lengthAdjust="spacing" textLength="144.846" x="2471.3756" y="861.7797">+updateStats() : void</text></g><!--MD5=[93a60ddb14422ad2d71d3d461138a146]
class Orc--><g id="elem_Orc"><rect codeLine="68" fill="#FFFFFF" height="57.0834" id="Orc" rx="2.3668" ry="2.3668" style="stroke:#000000;stroke-width:0.9467058502264639;" width="149.5795" x="2655.5099" y="811.6089"/><ellipse cx="2714.9157" cy="824.8628" fill="#FFFFFF" rx="8.5204" ry="8.5204" style="stroke:#000000;stroke-width:0.9467058502264639;"/><path d="M2717.1345,820.7653 C2716.247,820.3511 2715.6849,820.218 2714.8565,820.218 C2712.3714,820.218 2710.478,822.1854 2710.478,824.7592 L2710.478,825.8243 C2710.478,828.265 2712.475,830.0549 2715.2115,830.0549 C2716.3653,830.0549 2717.46,829.7738 2718.17,829.2561 C2718.7173,828.8715 2719.028,828.4425 2719.028,828.0727 C2719.028,827.6437 2718.6581,827.2739 2718.2144,827.2739 C2718.0073,827.2739 2717.815,827.3479 2717.6375,827.5254 C2717.2085,827.9839 2717.2085,827.9839 2717.031,828.0727 C2716.6316,828.3242 2715.9807,828.4425 2715.2559,828.4425 C2713.3181,828.4425 2712.0904,827.407 2712.0904,825.7947 L2712.0904,824.7592 C2712.0904,823.0729 2713.2738,821.8304 2714.9157,821.8304 C2715.463,821.8304 2716.0399,821.9783 2716.4837,822.215 C2716.9422,822.4812 2717.105,822.6883 2717.1937,823.0729 C2717.2529,823.4575 2717.2825,823.5758 2717.4156,823.6942 C2717.5487,823.8273 2717.7706,823.9309 2717.9777,823.9309 C2718.2292,823.9309 2718.4806,823.7977 2718.6434,823.5906 C2718.7469,823.4427 2718.7765,823.2652 2718.7765,822.8658 L2718.7765,821.5197 C2718.7765,821.1055 2718.7617,820.9872 2718.6729,820.8393 C2718.525,820.5878 2718.2588,820.4547 2717.9777,820.4547 C2717.6967,820.4547 2717.5044,820.5434 2717.2973,820.8393 L2717.1345,820.7653 Z " fill="#000000"/><text fill="#000000" font-family="Verdana" font-size="13.2539" lengthAdjust="spacing" textLength="23.6676" x="2731.4831" y="829.4512">Orc</text><line style="stroke:#000000;stroke-width:0.9467058502264639;" x1="2656.4566" x2="2804.1427" y1="838.1167" y2="838.1167"/><line style="stroke:#000000;stroke-width:0.9467058502264639;" x1="2656.4566" x2="2804.1427" y1="845.6903" y2="845.6903"/><text fill="#000000" font-family="Verdana" font-size="13.2539" lengthAdjust="spacing" textLength="138.2191" x="2661.1901" y="861.7797">+addGold() : Integer</text></g><!--MD5=[321dae1e4c20a532a67879525d68ecc8]
class Decorator--><g id="elem_Decorator"><rect codeLine="74" fill="#FFFFFF" height="72.5118" id="Decorator" rx="2.3668" ry="2.3668" style="stroke:#000000;stroke-width:0.9467058502264639;" width="156.2065" x="2838.6975" y="803.5619"/><ellipse cx="2878.6958" cy="816.8158" fill="#FFFFFF" rx="8.5204" ry="8.5204" style="stroke:#000000;stroke-width:0.9467058502264639;"/><path d="M2880.9147,812.7183 C2880.0271,812.3041 2879.465,812.171 2878.6366,812.171 C2876.1515,812.171 2874.2581,814.1384 2874.2581,816.7122 L2874.2581,817.7773 C2874.2581,820.218 2876.2551,822.0079 2878.9917,822.0079 C2880.1455,822.0079 2881.2401,821.7268 2881.9501,821.2091 C2882.4974,820.8245 2882.8081,820.3955 2882.8081,820.0257 C2882.8081,819.5967 2882.4383,819.2269 2881.9945,819.2269 C2881.7874,819.2269 2881.5951,819.3009 2881.4176,819.4784 C2880.9886,819.9369 2880.9886,819.9369 2880.8111,820.0257 C2880.4117,820.2772 2879.7609,820.3955 2879.036,820.3955 C2877.0982,820.3955 2875.8705,819.36 2875.8705,817.7477 L2875.8705,816.7122 C2875.8705,815.0259 2877.0539,813.7834 2878.6958,813.7834 C2879.2431,813.7834 2879.82,813.9313 2880.2638,814.168 C2880.7224,814.4342 2880.8851,814.6413 2880.9738,815.0259 C2881.033,815.4105 2881.0626,815.5288 2881.1957,815.6472 C2881.3288,815.7803 2881.5507,815.8839 2881.7578,815.8839 C2882.0093,815.8839 2882.2608,815.7507 2882.4235,815.5436 C2882.527,815.3957 2882.5566,815.2182 2882.5566,814.8188 L2882.5566,813.4727 C2882.5566,813.0585 2882.5418,812.9402 2882.4531,812.7923 C2882.3051,812.5408 2882.0389,812.4077 2881.7578,812.4077 C2881.4768,812.4077 2881.2845,812.4964 2881.0774,812.7923 L2880.9147,812.7183 Z " fill="#000000"/><text fill="#000000" font-family="Verdana" font-size="13.2539" lengthAdjust="spacing" textLength="69.1095" x="2895.2632" y="821.4042">Decorator</text><line style="stroke:#000000;stroke-width:0.9467058502264639;" x1="2839.6442" x2="2993.9573" y1="830.0697" y2="830.0697"/><text fill="#000000" font-family="Verdana" font-size="13.2539" lengthAdjust="spacing" textLength="144.846" x="2844.3777" y="846.159">#component : Player</text><line style="stroke:#000000;stroke-width:0.9467058502264639;" x1="2839.6442" x2="2993.9573" y1="853.0716" y2="853.0716"/><text fill="#000000" font-family="Verdana" font-size="13.2539" lengthAdjust="spacing" textLength="108.8712" x="2844.3777" y="869.161">+updateStats();</text></g><!--MD5=[80c532e980642ebbe770e7ed91e479d0]
class Enemy--><g id="elem_Enemy"><rect codeLine="100" fill="#FFFFFF" height="87.9401" id="Enemy" rx="2.3668" ry="2.3668" style="stroke:#000000;stroke-width:0.9467058502264639;" width="157.1532" x="1421.9522" y="573.9857"/><ellipse cx="1473.7843" cy="587.2396" fill="#FFFFFF" rx="8.5204" ry="8.5204" style="stroke:#000000;stroke-width:0.9467058502264639;"/><path d="M1476.0032,583.1421 C1475.1156,582.728 1474.5535,582.5948 1473.7252,582.5948 C1471.2401,582.5948 1469.3466,584.5622 1469.3466,587.1361 L1469.3466,588.2011 C1469.3466,590.6418 1471.3436,592.4317 1474.0802,592.4317 C1475.234,592.4317 1476.3286,592.1506 1477.0386,591.6329 C1477.5859,591.2483 1477.8966,590.8193 1477.8966,590.4495 C1477.8966,590.0206 1477.5268,589.6507 1477.083,589.6507 C1476.8759,589.6507 1476.6836,589.7247 1476.5061,589.9022 C1476.0771,590.3608 1476.0771,590.3608 1475.8996,590.4495 C1475.5002,590.701 1474.8494,590.8193 1474.1246,590.8193 C1472.1868,590.8193 1470.959,589.7839 1470.959,588.1715 L1470.959,587.1361 C1470.959,585.4497 1472.1424,584.2072 1473.7843,584.2072 C1474.3316,584.2072 1474.9085,584.3551 1475.3523,584.5918 C1475.8109,584.858 1475.9736,585.0651 1476.0623,585.4497 C1476.1215,585.8343 1476.1511,585.9527 1476.2842,586.071 C1476.4174,586.2041 1476.6392,586.3077 1476.8463,586.3077 C1477.0978,586.3077 1477.3493,586.1746 1477.512,585.9675 C1477.6155,585.8195 1477.6451,585.642 1477.6451,585.2426 L1477.6451,583.8965 C1477.6451,583.4824 1477.6303,583.364 1477.5416,583.2161 C1477.3936,582.9646 1477.1274,582.8315 1476.8463,582.8315 C1476.5653,582.8315 1476.373,582.9203 1476.1659,583.2161 L1476.0032,583.1421 Z " fill="#000000"/><text fill="#000000" font-family="Verdana" font-size="13.2539" lengthAdjust="spacing" textLength="46.3886" x="1490.3517" y="591.828">Enemy</text><line style="stroke:#000000;stroke-width:0.9467058502264639;" x1="1422.8989" x2="1578.1587" y1="600.4935" y2="600.4935"/><text fill="#000000" font-family="Verdana" font-size="13.2539" lengthAdjust="spacing" textLength="94.6706" x="1427.6324" y="616.5829">-hostile : bool</text><line style="stroke:#000000;stroke-width:0.9467058502264639;" x1="1422.8989" x2="1578.1587" y1="623.4955" y2="623.4955"/><text fill="#000000" font-family="Verdana" font-size="13.2539" lengthAdjust="spacing" textLength="120.2316" x="1427.6324" y="639.5849">+isHostile() : bool</text><text fill="#000000" font-family="Verdana" font-size="13.2539" lengthAdjust="spacing" textLength="145.7927" x="1427.6324" y="655.0132">+makeHostile() : void</text></g><!--MD5=[eec901bb95dcc22716bbcbcaabc6de6a]
class Vampire--><g id="elem_Vampire"><rect codeLine="108" fill="#FFFFFF" height="57.0834" id="Vampire" rx="2.3668" ry="2.3668" style="stroke:#000000;stroke-width:0.9467058502264639;" width="185.5543" x="1845.1297" y="811.6089"/><ellipse cx="1905.4822" cy="824.8628" fill="#FFFFFF" rx="8.5204" ry="8.5204" style="stroke:#000000;stroke-width:0.9467058502264639;"/><path d="M1907.701,820.7653 C1906.8135,820.3511 1906.2514,820.218 1905.423,820.218 C1902.9379,820.218 1901.0445,822.1854 1901.0445,824.7592 L1901.0445,825.8243 C1901.0445,828.265 1903.0415,830.0549 1905.778,830.0549 C1906.9318,830.0549 1908.0265,829.7738 1908.7365,829.2561 C1909.2838,828.8715 1909.5945,828.4425 1909.5945,828.0727 C1909.5945,827.6437 1909.2246,827.2739 1908.7809,827.2739 C1908.5738,827.2739 1908.3815,827.3479 1908.204,827.5254 C1907.775,827.9839 1907.775,827.9839 1907.5975,828.0727 C1907.1981,828.3242 1906.5472,828.4425 1905.8224,828.4425 C1903.8846,828.4425 1902.6569,827.407 1902.6569,825.7947 L1902.6569,824.7592 C1902.6569,823.0729 1903.8403,821.8304 1905.4822,821.8304 C1906.0295,821.8304 1906.6064,821.9783 1907.0502,822.215 C1907.5087,822.4812 1907.6715,822.6883 1907.7602,823.0729 C1907.8194,823.4575 1907.849,823.5758 1907.9821,823.6942 C1908.1152,823.8273 1908.3371,823.9309 1908.5442,823.9309 C1908.7957,823.9309 1909.0471,823.7977 1909.2099,823.5906 C1909.3134,823.4427 1909.343,823.2652 1909.343,822.8658 L1909.343,821.5197 C1909.343,821.1055 1909.3282,820.9872 1909.2394,820.8393 C1909.0915,820.5878 1908.8253,820.4547 1908.5442,820.4547 C1908.2631,820.4547 1908.0708,820.5434 1907.8638,820.8393 L1907.701,820.7653 Z " fill="#000000"/><text fill="#000000" font-family="Verdana" font-size="13.2539" lengthAdjust="spacing" textLength="57.7491" x="1922.0496" y="829.4512">Vampire</text><line style="stroke:#000000;stroke-width:0.9467058502264639;" x1="1846.0764" x2="2029.7373" y1="838.1167" y2="838.1167"/><line style="stroke:#000000;stroke-width:0.9467058502264639;" x1="1846.0764" x2="2029.7373" y1="845.6903" y2="845.6903"/><text fill="#000000" font-family="Verdana" font-size="13.2539" lengthAdjust="spacing" textLength="174.1939" x="1850.8099" y="861.7797">+getSymbol() : Character</text></g><!--MD5=[36b9d481efdb362423b3b610a347c1f0]
class Werewolf--><g id="elem_Werewolf"><rect codeLine="113" fill="#FFFFFF" height="57.0834" id="Werewolf" rx="2.3668" ry="2.3668" style="stroke:#000000;stroke-width:0.9467058502264639;" width="185.5543" x="2063.8188" y="811.6089"/><ellipse cx="2120.8578" cy="824.8628" fill="#FFFFFF" rx="8.5204" ry="8.5204" style="stroke:#000000;stroke-width:0.9467058502264639;"/><path d="M2123.0766,820.7653 C2122.1891,820.3511 2121.627,820.218 2120.7986,820.218 C2118.3135,820.218 2116.4201,822.1854 2116.4201,824.7592 L2116.4201,825.8243 C2116.4201,828.265 2118.4171,830.0549 2121.1536,830.0549 C2122.3074,830.0549 2123.4021,829.7738 2124.1121,829.2561 C2124.6594,828.8715 2124.97,828.4425 2124.97,828.0727 C2124.97,827.6437 2124.6002,827.2739 2124.1565,827.2739 C2123.9494,827.2739 2123.7571,827.3479 2123.5796,827.5254 C2123.1506,827.9839 2123.1506,827.9839 2122.9731,828.0727 C2122.5737,828.3242 2121.9228,828.4425 2121.198,828.4425 C2119.2602,828.4425 2118.0325,827.407 2118.0325,825.7947 L2118.0325,824.7592 C2118.0325,823.0729 2119.2158,821.8304 2120.8578,821.8304 C2121.4051,821.8304 2121.982,821.9783 2122.4258,822.215 C2122.8843,822.4812 2123.047,822.6883 2123.1358,823.0729 C2123.195,823.4575 2123.2245,823.5758 2123.3577,823.6942 C2123.4908,823.8273 2123.7127,823.9309 2123.9198,823.9309 C2124.1713,823.9309 2124.4227,823.7977 2124.5854,823.5906 C2124.689,823.4427 2124.7186,823.2652 2124.7186,822.8658 L2124.7186,821.5197 C2124.7186,821.1055 2124.7038,820.9872 2124.615,820.8393 C2124.4671,820.5878 2124.2008,820.4547 2123.9198,820.4547 C2123.6387,820.4547 2123.4464,820.5434 2123.2393,820.8393 L2123.0766,820.7653 Z " fill="#000000"/><text fill="#000000" font-family="Verdana" font-size="13.2539" lengthAdjust="spacing" textLength="64.376" x="2137.4251" y="829.4512">Werewolf</text><line style="stroke:#000000;stroke-width:0.9467058502264639;" x1="2064.7655" x2="2248.4264" y1="838.1167" y2="838.1167"/><line style="stroke:#000000;stroke-width:0.9467058502264639;" x1="2064.7655" x2="2248.4264" y1="845.6903" y2="845.6903"/><text fill="#000000" font-family="Verdana" font-size="13.2539" lengthAdjust="spacing" textLength="174.1939" x="2069.499" y="861.7797">+getSymbol() : Character</text></g><!--MD5=[4835e745e662bfe0926c2656c60a5d05]
class Goblin--><g id="elem_Goblin"><rect codeLine="118" fill="#FFFFFF" height="57.0834" id="Goblin" rx="2.3668" ry="2.3668" style="stroke:#000000;stroke-width:0.9467058502264639;" width="185.5543" x="716.6563" y="811.6089"/><ellipse cx="783.6358" cy="824.8628" fill="#FFFFFF" rx="8.5204" ry="8.5204" style="stroke:#000000;stroke-width:0.9467058502264639;"/><path d="M785.8546,820.7653 C784.9671,820.3511 784.405,820.218 783.5766,820.218 C781.0915,820.218 779.1981,822.1854 779.1981,824.7592 L779.1981,825.8243 C779.1981,828.265 781.195,830.0549 783.9316,830.0549 C785.0854,830.0549 786.18,829.7738 786.8901,829.2561 C787.4374,828.8715 787.748,828.4425 787.748,828.0727 C787.748,827.6437 787.3782,827.2739 786.9344,827.2739 C786.7274,827.2739 786.5351,827.3479 786.3575,827.5254 C785.9286,827.9839 785.9286,827.9839 785.7511,828.0727 C785.3517,828.3242 784.7008,828.4425 783.976,828.4425 C782.0382,828.4425 780.8104,827.407 780.8104,825.7947 L780.8104,824.7592 C780.8104,823.0729 781.9938,821.8304 783.6358,821.8304 C784.1831,821.8304 784.76,821.9783 785.2037,822.215 C785.6623,822.4812 785.825,822.6883 785.9138,823.0729 C785.9729,823.4575 786.0025,823.5758 786.1357,823.6942 C786.2688,823.8273 786.4907,823.9309 786.6978,823.9309 C786.9492,823.9309 787.2007,823.7977 787.3634,823.5906 C787.467,823.4427 787.4966,823.2652 787.4966,822.8658 L787.4966,821.5197 C787.4966,821.1055 787.4818,820.9872 787.393,820.8393 C787.2451,820.5878 786.9788,820.4547 786.6978,820.4547 C786.4167,820.4547 786.2244,820.5434 786.0173,820.8393 L785.8546,820.7653 Z " fill="#000000"/><text fill="#000000" font-family="Verdana" font-size="13.2539" lengthAdjust="spacing" textLength="44.4952" x="800.2031" y="829.4512">Goblin</text><line style="stroke:#000000;stroke-width:0.9467058502264639;" x1="717.603" x2="901.264" y1="838.1167" y2="838.1167"/><line style="stroke:#000000;stroke-width:0.9467058502264639;" x1="717.603" x2="901.264" y1="845.6903" y2="845.6903"/><text fill="#000000" font-family="Verdana" font-size="13.2539" lengthAdjust="spacing" textLength="174.1939" x="722.3366" y="861.7797">+getSymbol() : Character</text></g><!--MD5=[d028a7a7f34f78ee6cff7c9b9b5357e6]
class Merchant--><g id="elem_Merchant"><rect codeLine="149" fill="#FFFFFF" height="134.2251" id="Merchant" rx="2.3668" ry="2.3668" style="stroke:#000000;stroke-width:0.9467058502264639;" width="194.0747" x="935.8187" y="772.794"/><ellipse cx="997.1179" cy="786.0478" fill="#FFFFFF" rx="8.5204" ry="8.5204" style="stroke:#000000;stroke-width:0.9467058502264639;"/><path d="M999.3368,781.9504 C998.4492,781.5362 997.8871,781.4031 997.0588,781.4031 C994.5737,781.4031 992.6803,783.3704 992.6803,785.9443 L992.6803,787.0093 C992.6803,789.4501 994.6772,791.2399 997.4138,791.2399 C998.5676,791.2399 999.6622,790.9589 1000.3722,790.4411 C1000.9196,790.0565 1001.2302,789.6276 1001.2302,789.2578 C1001.2302,788.8288 1000.8604,788.459 1000.4166,788.459 C1000.2095,788.459 1000.0172,788.5329 999.8397,788.7104 C999.4107,789.169 999.4107,789.169 999.2332,789.2578 C998.8338,789.5092 998.183,789.6276 997.4582,789.6276 C995.5204,789.6276 994.2926,788.5921 994.2926,786.9797 L994.2926,785.9443 C994.2926,784.258 995.476,783.0154 997.1179,783.0154 C997.6653,783.0154 998.2421,783.1633 998.6859,783.4 C999.1445,783.6663 999.3072,783.8734 999.3959,784.258 C999.4551,784.6426 999.4847,784.7609 999.6178,784.8792 C999.751,785.0124 999.9728,785.1159 1000.1799,785.1159 C1000.4314,785.1159 1000.6829,784.9828 1000.8456,784.7757 C1000.9491,784.6278 1000.9787,784.4503 1000.9787,784.0509 L1000.9787,782.7048 C1000.9787,782.2906 1000.9639,782.1723 1000.8752,782.0243 C1000.7273,781.7729 1000.461,781.6397 1000.1799,781.6397 C999.8989,781.6397 999.7066,781.7285 999.4995,782.0243 L999.3368,781.9504 Z " fill="#000000"/><text fill="#000000" font-family="Verdana" font-size="13.2539" lengthAdjust="spacing" textLength="64.376" x="1013.6853" y="790.6362">Merchant</text><line style="stroke:#000000;stroke-width:0.9467058502264639;" x1="936.7654" x2="1128.9467" y1="799.3017" y2="799.3017"/><text fill="#000000" font-family="Verdana" font-size="13.2539" lengthAdjust="spacing" textLength="119.2849" x="941.499" y="815.3911">-hostile : Boolean</text><line style="stroke:#000000;stroke-width:0.9467058502264639;" x1="936.7654" x2="1128.9467" y1="822.3037" y2="822.3037"/><text fill="#000000" font-family="Verdana" font-size="13.2539" lengthAdjust="spacing" textLength="174.1939" x="941.499" y="838.3931">+getSymbol() : Character</text><text fill="#000000" font-family="Verdana" font-size="13.2539" lengthAdjust="spacing" textLength="144.846" x="941.499" y="853.8214">+isHostile() : Boolean</text><text fill="#000000" font-family="Verdana" font-size="13.2539" lengthAdjust="spacing" textLength="172.3005" x="941.499" y="869.2498">+makeHostile() : Boolean</text><text fill="#000000" font-family="Verdana" font-size="13.2539" lengthAdjust="spacing" textLength="182.7142" x="941.499" y="884.6781">+rewardAmount() : Integer</text><text fill="#000000" font-family="Verdana" font-size="13.2539" lengthAdjust="spacing" textLength="174.1939" x="941.499" y="900.1065">+getSymbol() : Character</text></g><!--MD5=[0ec5399c048466d00a31875a1c1775fc]
class Dragon--><g id="elem_Dragon"><rect codeLine="129" fill="#FFFFFF" height="134.2251" id="Dragon" rx="2.3668" ry="2.3668" style="stroke:#000000;stroke-width:0.9467058502264639;" width="211.1154" x="1163.0281" y="772.794"/><ellipse cx="1240.4213" cy="786.0478" fill="#FFFFFF" rx="8.5204" ry="8.5204" style="stroke:#000000;stroke-width:0.9467058502264639;"/><path d="M1242.6402,781.9504 C1241.7526,781.5362 1241.1905,781.4031 1240.3622,781.4031 C1237.8771,781.4031 1235.9837,783.3704 1235.9837,785.9443 L1235.9837,787.0093 C1235.9837,789.4501 1237.9806,791.2399 1240.7172,791.2399 C1241.871,791.2399 1242.9656,790.9589 1243.6756,790.4411 C1244.223,790.0565 1244.5336,789.6276 1244.5336,789.2578 C1244.5336,788.8288 1244.1638,788.459 1243.72,788.459 C1243.5129,788.459 1243.3206,788.5329 1243.1431,788.7104 C1242.7141,789.169 1242.7141,789.169 1242.5366,789.2578 C1242.1372,789.5092 1241.4864,789.6276 1240.7616,789.6276 C1238.8238,789.6276 1237.596,788.5921 1237.596,786.9797 L1237.596,785.9443 C1237.596,784.258 1238.7794,783.0154 1240.4213,783.0154 C1240.9687,783.0154 1241.5456,783.1633 1241.9893,783.4 C1242.4479,783.6663 1242.6106,783.8734 1242.6994,784.258 C1242.7585,784.6426 1242.7881,784.7609 1242.9212,784.8792 C1243.0544,785.0124 1243.2763,785.1159 1243.4833,785.1159 C1243.7348,785.1159 1243.9863,784.9828 1244.149,784.7757 C1244.2525,784.6278 1244.2821,784.4503 1244.2821,784.0509 L1244.2821,782.7048 C1244.2821,782.2906 1244.2673,782.1723 1244.1786,782.0243 C1244.0307,781.7729 1243.7644,781.6397 1243.4833,781.6397 C1243.2023,781.6397 1243.01,781.7285 1242.8029,782.0243 L1242.6402,781.9504 Z " fill="#000000"/><text fill="#000000" font-family="Verdana" font-size="13.2539" lengthAdjust="spacing" textLength="49.2287" x="1256.9887" y="790.6362">Dragon</text><line style="stroke:#000000;stroke-width:0.9467058502264639;" x1="1163.9748" x2="1373.1968" y1="799.3017" y2="799.3017"/><text fill="#000000" font-family="Verdana" font-size="13.2539" lengthAdjust="spacing" textLength="124.0185" x="1168.7084" y="815.3911">-booty : *Treasure</text><line style="stroke:#000000;stroke-width:0.9467058502264639;" x1="1163.9748" x2="1373.1968" y1="822.3037" y2="822.3037"/><text fill="#000000" font-family="Verdana" font-size="13.2539" lengthAdjust="spacing" textLength="174.1939" x="1168.7084" y="838.3931">+getSymbol() : Character</text><text fill="#000000" font-family="Verdana" font-size="13.2539" lengthAdjust="spacing" textLength="135.3789" x="1168.7084" y="853.8214">+getHoard() : Hoard</text><text fill="#000000" font-family="Verdana" font-size="13.2539" lengthAdjust="spacing" textLength="98.4574" x="1168.7084" y="869.2498">+move() : void</text><text fill="#000000" font-family="Verdana" font-size="13.2539" lengthAdjust="spacing" textLength="182.7142" x="1168.7084" y="884.6781">+rewardAmount() : Integer</text><text fill="#000000" font-family="Verdana" font-size="13.2539" lengthAdjust="spacing" textLength="199.7549" x="1168.7084" y="900.1065">+takeDamage(Integer) : Void</text></g><!--MD5=[957ddf93f71061be3b9190fed1e8b063]
class Treasure--><g id="elem_Treasure"><rect codeLine="174" fill="#FFFFFF" height="87.9401" id="Treasure" rx="2.3668" ry="2.3668" style="stroke:#000000;stroke-width:0.9467058502264639;" width="202.5951" x="873.8095" y="964.0285"/><ellipse cx="942.209" cy="977.2824" fill="#FFFFFF" rx="8.5204" ry="8.5204" style="stroke:#000000;stroke-width:0.9467058502264639;"/><path d="M944.4278,973.185 C943.5403,972.7708 942.9782,972.6376 942.1498,972.6376 C939.6647,972.6376 937.7713,974.605 937.7713,977.1789 L937.7713,978.2439 C937.7713,980.6846 939.7683,982.4745 942.5048,982.4745 C943.6586,982.4745 944.7533,982.1935 945.4633,981.6757 C946.0106,981.2911 946.3213,980.8621 946.3213,980.4923 C946.3213,980.0634 945.9514,979.6936 945.5077,979.6936 C945.3006,979.6936 945.1083,979.7675 944.9308,979.945 C944.5018,980.4036 944.5018,980.4036 944.3243,980.4923 C943.9249,980.7438 943.274,980.8621 942.5492,980.8621 C940.6114,980.8621 939.3837,979.8267 939.3837,978.2143 L939.3837,977.1789 C939.3837,975.4925 940.5671,974.25 942.209,974.25 C942.7563,974.25 943.3332,974.3979 943.777,974.6346 C944.2355,974.9009 944.3983,975.108 944.487,975.4925 C944.5462,975.8771 944.5758,975.9955 944.7089,976.1138 C944.842,976.247 945.0639,976.3505 945.271,976.3505 C945.5225,976.3505 945.7739,976.2174 945.9367,976.0103 C946.0402,975.8624 946.0698,975.6848 946.0698,975.2855 L946.0698,973.9394 C946.0698,973.5252 946.055,973.4068 945.9662,973.2589 C945.8183,973.0074 945.5521,972.8743 945.271,972.8743 C944.9899,972.8743 944.7976,972.9631 944.5906,973.2589 L944.4278,973.185 Z " fill="#000000"/><text fill="#000000" font-family="Verdana" font-size="13.2539" lengthAdjust="spacing" textLength="58.6958" x="958.7763" y="981.8708">Treasure</text><line style="stroke:#000000;stroke-width:0.9467058502264639;" x1="874.7562" x2="1075.4578" y1="990.5363" y2="990.5363"/><text fill="#000000" font-family="Verdana" font-size="13.2539" lengthAdjust="spacing" textLength="151.4729" x="879.4897" y="1006.6257">-goldAmount : Integer</text><line style="stroke:#000000;stroke-width:0.9467058502264639;" x1="874.7562" x2="1075.4578" y1="1013.5383" y2="1013.5383"/><text fill="#000000" font-family="Verdana" font-size="13.2539" lengthAdjust="spacing" textLength="174.1939" x="879.4897" y="1029.6277">+getSymbol() : Character</text><text fill="#000000" font-family="Verdana" font-size="13.2539" lengthAdjust="spacing" textLength="191.2346" x="879.4897" y="1045.056">+getGoldAmount() : Integer</text></g><!--MD5=[f1b40927fdcae1a56e04b73547b6877b]
class Phoenix--><g id="elem_Phoenix"><rect codeLine="140" fill="#FFFFFF" height="57.0834" id="Phoenix" rx="2.3668" ry="2.3668" style="stroke:#000000;stroke-width:0.9467058502264639;" width="185.5543" x="1407.7516" y="811.6089"/><ellipse cx="1469.9975" cy="824.8628" fill="#FFFFFF" rx="8.5204" ry="8.5204" style="stroke:#000000;stroke-width:0.9467058502264639;"/><path d="M1472.2164,820.7653 C1471.3288,820.3511 1470.7667,820.218 1469.9383,820.218 C1467.4532,820.218 1465.5598,822.1854 1465.5598,824.7592 L1465.5598,825.8243 C1465.5598,828.265 1467.5568,830.0549 1470.2934,830.0549 C1471.4472,830.0549 1472.5418,829.7738 1473.2518,829.2561 C1473.7991,828.8715 1474.1098,828.4425 1474.1098,828.0727 C1474.1098,827.6437 1473.74,827.2739 1473.2962,827.2739 C1473.0891,827.2739 1472.8968,827.3479 1472.7193,827.5254 C1472.2903,827.9839 1472.2903,827.9839 1472.1128,828.0727 C1471.7134,828.3242 1471.0626,828.4425 1470.3377,828.4425 C1468.3999,828.4425 1467.1722,827.407 1467.1722,825.7947 L1467.1722,824.7592 C1467.1722,823.0729 1468.3556,821.8304 1469.9975,821.8304 C1470.5448,821.8304 1471.1217,821.9783 1471.5655,822.215 C1472.0241,822.4812 1472.1868,822.6883 1472.2755,823.0729 C1472.3347,823.4575 1472.3643,823.5758 1472.4974,823.6942 C1472.6305,823.8273 1472.8524,823.9309 1473.0595,823.9309 C1473.311,823.9309 1473.5624,823.7977 1473.7252,823.5906 C1473.8287,823.4427 1473.8583,823.2652 1473.8583,822.8658 L1473.8583,821.5197 C1473.8583,821.1055 1473.8435,820.9872 1473.7547,820.8393 C1473.6068,820.5878 1473.3406,820.4547 1473.0595,820.4547 C1472.7785,820.4547 1472.5862,820.5434 1472.3791,820.8393 L1472.2164,820.7653 Z " fill="#000000"/><text fill="#000000" font-family="Verdana" font-size="13.2539" lengthAdjust="spacing" textLength="53.9622" x="1486.5649" y="829.4512">Phoenix</text><line style="stroke:#000000;stroke-width:0.9467058502264639;" x1="1408.6983" x2="1592.3592" y1="838.1167" y2="838.1167"/><line style="stroke:#000000;stroke-width:0.9467058502264639;" x1="1408.6983" x2="1592.3592" y1="845.6903" y2="845.6903"/><text fill="#000000" font-family="Verdana" font-size="13.2539" lengthAdjust="spacing" textLength="174.1939" x="1413.4318" y="861.7797">+getSymbol() : Character</text></g><!--MD5=[0d912f6bb98965e5a45e9bb1a9ed0249]
class Troll--><g id="elem_Troll"><rect codeLine="145" fill="#FFFFFF" height="57.0834" id="Troll" rx="2.3668" ry="2.3668" style="stroke:#000000;stroke-width:0.9467058502264639;" width="185.5543" x="1626.4407" y="811.6089"/><ellipse cx="1700.5204" cy="824.8628" fill="#FFFFFF" rx="8.5204" ry="8.5204" style="stroke:#000000;stroke-width:0.9467058502264639;"/><path d="M1702.7392,820.7653 C1701.8517,820.3511 1701.2896,820.218 1700.4612,820.218 C1697.9761,820.218 1696.0827,822.1854 1696.0827,824.7592 L1696.0827,825.8243 C1696.0827,828.265 1698.0797,830.0549 1700.8162,830.0549 C1701.97,830.0549 1703.0647,829.7738 1703.7747,829.2561 C1704.322,828.8715 1704.6326,828.4425 1704.6326,828.0727 C1704.6326,827.6437 1704.2628,827.2739 1703.8191,827.2739 C1703.612,827.2739 1703.4197,827.3479 1703.2422,827.5254 C1702.8132,827.9839 1702.8132,827.9839 1702.6357,828.0727 C1702.2363,828.3242 1701.5854,828.4425 1700.8606,828.4425 C1698.9228,828.4425 1697.6951,827.407 1697.6951,825.7947 L1697.6951,824.7592 C1697.6951,823.0729 1698.8784,821.8304 1700.5204,821.8304 C1701.0677,821.8304 1701.6446,821.9783 1702.0884,822.215 C1702.5469,822.4812 1702.7096,822.6883 1702.7984,823.0729 C1702.8576,823.4575 1702.8871,823.5758 1703.0203,823.6942 C1703.1534,823.8273 1703.3753,823.9309 1703.5824,823.9309 C1703.8339,823.9309 1704.0853,823.7977 1704.248,823.5906 C1704.3516,823.4427 1704.3812,823.2652 1704.3812,822.8658 L1704.3812,821.5197 C1704.3812,821.1055 1704.3664,820.9872 1704.2776,820.8393 C1704.1297,820.5878 1703.8634,820.4547 1703.5824,820.4547 C1703.3013,820.4547 1703.109,820.5434 1702.9019,820.8393 L1702.7392,820.7653 Z " fill="#000000"/><text fill="#000000" font-family="Verdana" font-size="13.2539" lengthAdjust="spacing" textLength="30.2946" x="1717.0877" y="829.4512">Troll</text><line style="stroke:#000000;stroke-width:0.9467058502264639;" x1="1627.3874" x2="1811.0483" y1="838.1167" y2="838.1167"/><line style="stroke:#000000;stroke-width:0.9467058502264639;" x1="1627.3874" x2="1811.0483" y1="845.6903" y2="845.6903"/><text fill="#000000" font-family="Verdana" font-size="13.2539" lengthAdjust="spacing" textLength="174.1939" x="1632.1209" y="861.7797">+getSymbol() : Character</text></g><!--MD5=[44a1b4afaef76c16e6c9ec4990ad0c8d]
class Item--><g id="elem_Item"><rect codeLine="159" fill="#FFFFFF" height="195.9385" id="Item" rx="2.3668" ry="2.3668" style="stroke:#000000;stroke-width:0.9467058502264639;" width="249.9303" x="430.7512" y="520.0235"/><ellipse cx="536.0722" cy="533.2774" fill="#FFFFFF" rx="8.5204" ry="8.5204" style="stroke:#000000;stroke-width:0.9467058502264639;"/><path d="M538.291,529.1799 C537.4035,528.7657 536.8414,528.6326 536.013,528.6326 C533.5279,528.6326 531.6345,530.6 531.6345,533.1738 L531.6345,534.2389 C531.6345,536.6796 533.6315,538.4695 536.368,538.4695 C537.5218,538.4695 538.6165,538.1884 539.3265,537.6707 C539.8738,537.2861 540.1844,536.8571 540.1844,536.4873 C540.1844,536.0583 539.8146,535.6885 539.3709,535.6885 C539.1638,535.6885 538.9715,535.7625 538.794,535.94 C538.365,536.3985 538.365,536.3985 538.1875,536.4873 C537.7881,536.7388 537.1372,536.8571 536.4124,536.8571 C534.4746,536.8571 533.2469,535.8216 533.2469,534.2093 L533.2469,533.1738 C533.2469,531.4875 534.4302,530.245 536.0722,530.245 C536.6195,530.245 537.1964,530.3929 537.6402,530.6296 C538.0987,530.8958 538.2614,531.1029 538.3502,531.4875 C538.4094,531.8721 538.439,531.9904 538.5721,532.1088 C538.7052,532.2419 538.9271,532.3455 539.1342,532.3455 C539.3857,532.3455 539.6371,532.2123 539.7998,532.0052 C539.9034,531.8573 539.933,531.6798 539.933,531.2804 L539.933,529.9343 C539.933,529.5201 539.9182,529.4018 539.8294,529.2539 C539.6815,529.0024 539.4152,528.8693 539.1342,528.8693 C538.8531,528.8693 538.6608,528.958 538.4537,529.2539 L538.291,529.1799 Z " fill="#000000"/><text fill="#000000" font-family="Verdana" font-size="13.2539" lengthAdjust="spacing" textLength="32.188" x="552.6395" y="537.8658">Item</text><line style="stroke:#000000;stroke-width:0.9467058502264639;" x1="431.6979" x2="679.7348" y1="546.5313" y2="546.5313"/><text fill="#000000" font-family="Verdana" font-size="13.2539" lengthAdjust="spacing" textLength="99.4041" x="436.4314" y="562.6206">-xPos : Integer</text><text fill="#000000" font-family="Verdana" font-size="13.2539" lengthAdjust="spacing" textLength="99.4041" x="436.4314" y="578.049">-yPos : Integer</text><text fill="#000000" font-family="Verdana" font-size="13.2539" lengthAdjust="spacing" textLength="134.4322" x="436.4314" y="593.4773">-symbol : Character</text><text fill="#000000" font-family="Verdana" font-size="13.2539" lengthAdjust="spacing" textLength="127.8053" x="436.4314" y="608.9057">-guarded : Boolean</text><line style="stroke:#000000;stroke-width:0.9467058502264639;" x1="431.6979" x2="679.7348" y1="615.8183" y2="615.8183"/><text fill="#000000" font-family="Verdana" font-size="13.2539" lengthAdjust="spacing" textLength="115.4981" x="436.4314" y="631.9077">+getX() : Integer</text><text fill="#000000" font-family="Verdana" font-size="13.2539" lengthAdjust="spacing" textLength="114.5514" x="436.4314" y="647.336">+getY() : Integer</text><text fill="#000000" font-family="Verdana" font-size="13.2539" lengthAdjust="spacing" textLength="200.7016" x="436.4314" y="662.7644">+getSymbol() : Character = 0</text><text fill="#000000" font-family="Verdana" font-size="13.2539" lengthAdjust="spacing" textLength="238.5699" x="436.4314" y="678.1927">+withinRange(Character) : Boolean</text><text fill="#000000" font-family="Verdana" font-size="13.2539" lengthAdjust="spacing" textLength="154.3131" x="436.4314" y="693.6211">+isGuarded() : Boolean</text><text fill="#000000" font-family="Verdana" font-size="13.2539" lengthAdjust="spacing" textLength="156.2065" x="436.4314" y="709.0494">+setUnguarded() : Void</text></g><!--MD5=[b0a16f083d971cd5fdb00a761526111f]
class Potion--><g id="elem_Potion"><rect codeLine="181" fill="#FFFFFF" height="87.9401" id="Potion" rx="2.3668" ry="2.3668" style="stroke:#000000;stroke-width:0.9467058502264639;" width="185.5543" x="25.5611" y="795.9882"/><ellipse cx="92.5405" cy="809.2421" fill="#FFFFFF" rx="8.5204" ry="8.5204" style="stroke:#000000;stroke-width:0.9467058502264639;"/><path d="M94.7593,805.1447 C93.8718,804.7305 93.3097,804.5974 92.4813,804.5974 C89.9962,804.5974 88.1028,806.5647 88.1028,809.1386 L88.1028,810.2036 C88.1028,812.6444 90.0998,814.4342 92.8363,814.4342 C93.9901,814.4342 95.0848,814.1532 95.7948,813.6354 C96.3421,813.2508 96.6528,812.8219 96.6528,812.4521 C96.6528,812.0231 96.2829,811.6533 95.8392,811.6533 C95.6321,811.6533 95.4398,811.7272 95.2623,811.9047 C94.8333,812.3633 94.8333,812.3633 94.6558,812.4521 C94.2564,812.7035 93.6055,812.8219 92.8807,812.8219 C90.9429,812.8219 89.7152,811.7864 89.7152,810.174 L89.7152,809.1386 C89.7152,807.4523 90.8986,806.2097 92.5405,806.2097 C93.0878,806.2097 93.6647,806.3576 94.1085,806.5943 C94.567,806.8606 94.7298,807.0677 94.8185,807.4523 C94.8777,807.8369 94.9073,807.9552 95.0404,808.0735 C95.1735,808.2067 95.3954,808.3102 95.6025,808.3102 C95.854,808.3102 96.1054,808.1771 96.2682,807.97 C96.3717,807.8221 96.4013,807.6446 96.4013,807.2452 L96.4013,805.8991 C96.4013,805.4849 96.3865,805.3665 96.2977,805.2186 C96.1498,804.9672 95.8836,804.834 95.6025,804.834 C95.3214,804.834 95.1291,804.9228 94.9221,805.2186 L94.7593,805.1447 Z " fill="#000000"/><text fill="#000000" font-family="Verdana" font-size="13.2539" lengthAdjust="spacing" textLength="44.4952" x="109.1078" y="813.8305">Potion</text><line style="stroke:#000000;stroke-width:0.9467058502264639;" x1="26.5078" x2="210.1687" y1="822.496" y2="822.496"/><text fill="#000000" font-family="Verdana" font-size="13.2539" lengthAdjust="spacing" textLength="172.3005" x="31.2413" y="838.5854">-abilitiesVisible : Boolean</text><line style="stroke:#000000;stroke-width:0.9467058502264639;" x1="26.5078" x2="210.1687" y1="845.498" y2="845.498"/><text fill="#000000" font-family="Verdana" font-size="13.2539" lengthAdjust="spacing" textLength="121.1783" x="31.2413" y="861.5874">+consume() : void</text><text fill="#000000" font-family="Verdana" font-size="13.2539" lengthAdjust="spacing" textLength="174.1939" x="31.2413" y="877.0157">+getSymbol() : Character</text></g><!--MD5=[3ff8fae88b5f9bfb4245ef7461ad2891]
class Compass--><g id="elem_Compass"><rect codeLine="188" fill="#FFFFFF" height="57.0834" id="Compass" rx="2.3668" ry="2.3668" style="stroke:#000000;stroke-width:0.9467058502264639;" width="185.5543" x="244.2501" y="811.6089"/><ellipse cx="302.7092" cy="824.8628" fill="#FFFFFF" rx="8.5204" ry="8.5204" style="stroke:#000000;stroke-width:0.9467058502264639;"/><path d="M304.928,820.7653 C304.0405,820.3511 303.4784,820.218 302.65,820.218 C300.1649,820.218 298.2715,822.1854 298.2715,824.7592 L298.2715,825.8243 C298.2715,828.265 300.2685,830.0549 303.005,830.0549 C304.1588,830.0549 305.2535,829.7738 305.9635,829.2561 C306.5108,828.8715 306.8214,828.4425 306.8214,828.0727 C306.8214,827.6437 306.4516,827.2739 306.0079,827.2739 C305.8008,827.2739 305.6085,827.3479 305.431,827.5254 C305.002,827.9839 305.002,827.9839 304.8245,828.0727 C304.4251,828.3242 303.7742,828.4425 303.0494,828.4425 C301.1116,828.4425 299.8839,827.407 299.8839,825.7947 L299.8839,824.7592 C299.8839,823.0729 301.0673,821.8304 302.7092,821.8304 C303.2565,821.8304 303.8334,821.9783 304.2772,822.215 C304.7357,822.4812 304.8985,822.6883 304.9872,823.0729 C305.0464,823.4575 305.076,823.5758 305.2091,823.6942 C305.3422,823.8273 305.5641,823.9309 305.7712,823.9309 C306.0227,823.9309 306.2741,823.7977 306.4368,823.5906 C306.5404,823.4427 306.57,823.2652 306.57,822.8658 L306.57,821.5197 C306.57,821.1055 306.5552,820.9872 306.4664,820.8393 C306.3185,820.5878 306.0523,820.4547 305.7712,820.4547 C305.4901,820.4547 305.2978,820.5434 305.0908,820.8393 L304.928,820.7653 Z " fill="#000000"/><text fill="#000000" font-family="Verdana" font-size="13.2539" lengthAdjust="spacing" textLength="61.5359" x="319.2765" y="829.4512">Compass</text><line style="stroke:#000000;stroke-width:0.9467058502264639;" x1="245.1968" x2="428.8578" y1="838.1167" y2="838.1167"/><line style="stroke:#000000;stroke-width:0.9467058502264639;" x1="245.1968" x2="428.8578" y1="845.6903" y2="845.6903"/><text fill="#000000" font-family="Verdana" font-size="13.2539" lengthAdjust="spacing" textLength="174.1939" x="249.9303" y="861.7797">+getSymbol() : Character</text></g><!--MD5=[287929cf111333c1a9e1366d76913973]
class BarrierSuit--><g id="elem_BarrierSuit"><rect codeLine="192" fill="#FFFFFF" height="57.0834" id="BarrierSuit" rx="2.3668" ry="2.3668" style="stroke:#000000;stroke-width:0.9467058502264639;" width="185.5543" x="462.9392" y="811.6089"/><ellipse cx="515.718" cy="824.8628" fill="#FFFFFF" rx="8.5204" ry="8.5204" style="stroke:#000000;stroke-width:0.9467058502264639;"/><path d="M517.9369,820.7653 C517.0493,820.3511 516.4872,820.218 515.6588,820.218 C513.1737,820.218 511.2803,822.1854 511.2803,824.7592 L511.2803,825.8243 C511.2803,828.265 513.2773,830.0549 516.0139,830.0549 C517.1677,830.0549 518.2623,829.7738 518.9723,829.2561 C519.5196,828.8715 519.8303,828.4425 519.8303,828.0727 C519.8303,827.6437 519.4605,827.2739 519.0167,827.2739 C518.8096,827.2739 518.6173,827.3479 518.4398,827.5254 C518.0108,827.9839 518.0108,827.9839 517.8333,828.0727 C517.4339,828.3242 516.7831,828.4425 516.0582,828.4425 C514.1204,828.4425 512.8927,827.407 512.8927,825.7947 L512.8927,824.7592 C512.8927,823.0729 514.0761,821.8304 515.718,821.8304 C516.2653,821.8304 516.8422,821.9783 517.286,822.215 C517.7446,822.4812 517.9073,822.6883 517.996,823.0729 C518.0552,823.4575 518.0848,823.5758 518.2179,823.6942 C518.351,823.8273 518.5729,823.9309 518.78,823.9309 C519.0315,823.9309 519.283,823.7977 519.4457,823.5906 C519.5492,823.4427 519.5788,823.2652 519.5788,822.8658 L519.5788,821.5197 C519.5788,821.1055 519.564,820.9872 519.4753,820.8393 C519.3273,820.5878 519.0611,820.4547 518.78,820.4547 C518.499,820.4547 518.3067,820.5434 518.0996,820.8393 L517.9369,820.7653 Z " fill="#000000"/><text fill="#000000" font-family="Verdana" font-size="13.2539" lengthAdjust="spacing" textLength="72.8964" x="532.2854" y="829.4512">BarrierSuit</text><line style="stroke:#000000;stroke-width:0.9467058502264639;" x1="463.8859" x2="647.5468" y1="838.1167" y2="838.1167"/><line style="stroke:#000000;stroke-width:0.9467058502264639;" x1="463.8859" x2="647.5468" y1="845.6903" y2="845.6903"/><text fill="#000000" font-family="Verdana" font-size="13.2539" lengthAdjust="spacing" textLength="174.1939" x="468.6194" y="861.7797">+getSymbol() : Character</text></g><!--MD5=[b6dcce5e5ef3c84b0b048d11301373dd]
class Game--><g id="elem_Game"><rect codeLine="202" fill="#FFFFFF" height="211.3669" id="Game" rx="2.3668" ry="2.3668" style="stroke:#000000;stroke-width:0.9467058502264639;" width="314.3063" x="1294.1469" y="174.9492"/><ellipse cx="1427.8691" cy="188.2031" fill="#FFFFFF" rx="8.5204" ry="8.5204" style="stroke:#000000;stroke-width:0.9467058502264639;"/><path d="M1430.0879,184.1056 C1429.2004,183.6914 1428.6383,183.5583 1427.8099,183.5583 C1425.3248,183.5583 1423.4314,185.5257 1423.4314,188.0995 L1423.4314,189.1646 C1423.4314,191.6053 1425.4284,193.3952 1428.1649,193.3952 C1429.3187,193.3952 1430.4134,193.1141 1431.1234,192.5964 C1431.6707,192.2118 1431.9814,191.7828 1431.9814,191.413 C1431.9814,190.984 1431.6115,190.6142 1431.1678,190.6142 C1430.9607,190.6142 1430.7684,190.6882 1430.5909,190.8657 C1430.1619,191.3243 1430.1619,191.3243 1429.9844,191.413 C1429.585,191.6645 1428.9341,191.7828 1428.2093,191.7828 C1426.2715,191.7828 1425.0438,190.7474 1425.0438,189.135 L1425.0438,188.0995 C1425.0438,186.4132 1426.2272,185.1707 1427.8691,185.1707 C1428.4164,185.1707 1428.9933,185.3186 1429.4371,185.5553 C1429.8956,185.8215 1430.0584,186.0286 1430.1471,186.4132 C1430.2063,186.7978 1430.2359,186.9162 1430.369,187.0345 C1430.5021,187.1676 1430.724,187.2712 1430.9311,187.2712 C1431.1826,187.2712 1431.434,187.138 1431.5968,186.931 C1431.7003,186.783 1431.7299,186.6055 1431.7299,186.2061 L1431.7299,184.86 C1431.7299,184.4459 1431.7151,184.3275 1431.6263,184.1796 C1431.4784,183.9281 1431.2122,183.795 1430.9311,183.795 C1430.65,183.795 1430.4577,183.8837 1430.2507,184.1796 L1430.0879,184.1056 Z " fill="#000000"/><text fill="#000000" font-family="Verdana" font-size="13.2539" lengthAdjust="spacing" textLength="39.7616" x="1444.4365" y="192.7915">Game</text><line style="stroke:#000000;stroke-width:0.9467058502264639;" x1="1295.0936" x2="1607.5065" y1="201.457" y2="201.457"/><text fill="#000000" font-family="Verdana" font-size="13.2539" lengthAdjust="spacing" textLength="90.8838" x="1299.8271" y="217.5463">-floor : *Floor</text><text fill="#000000" font-family="Verdana" font-size="13.2539" lengthAdjust="spacing" textLength="178.9274" x="1299.8271" y="232.9747">-barrierSuitFloor  : Integer</text><text fill="#000000" font-family="Verdana" font-size="13.2539" lengthAdjust="spacing" textLength="106.0311" x="1299.8271" y="248.403">-playa : Player *</text><line style="stroke:#000000;stroke-width:0.9467058502264639;" x1="1295.0936" x2="1607.5065" y1="255.3157" y2="255.3157"/><text fill="#000000" font-family="Verdana" font-size="13.2539" lengthAdjust="spacing" textLength="114.5514" x="1299.8271" y="271.405">+init(race) : Void</text><text fill="#000000" font-family="Verdana" font-size="13.2539" lengthAdjust="spacing" textLength="162.8334" x="1299.8271" y="286.8334">+generateFloor() : Floor</text><text fill="#000000" font-family="Verdana" font-size="13.2539" lengthAdjust="spacing" textLength="208.2753" x="1299.8271" y="302.2617">+move(integer, integer) : Void</text><text fill="#000000" font-family="Verdana" font-size="13.2539" lengthAdjust="spacing" textLength="106.9778" x="1299.8271" y="317.6901">+attack() : Void</text><text fill="#000000" font-family="Verdana" font-size="13.2539" lengthAdjust="spacing" textLength="125.9119" x="1299.8271" y="333.1184">+usePotion(): Void</text><text fill="#000000" font-family="Verdana" font-size="13.2539" lengthAdjust="spacing" textLength="109.8179" x="1299.8271" y="348.5468">+restart() : Void</text><text fill="#000000" font-family="Verdana" font-size="13.2539" lengthAdjust="spacing" textLength="88.9903" x="1299.8271" y="363.9751">+quit() : Void</text><text fill="#000000" font-family="Verdana" font-size="13.2539" lengthAdjust="spacing" textLength="302.9459" x="1299.8271" y="379.4035">+operator &lt;&lt; (ostream&amp;, Game) : ostream&amp;</text></g><!--MD5=[b098efa4dd65edfeebe973e4edec7c36]
class Floor--><g id="elem_Floor"><rect codeLine="218" fill="#FFFFFF" height="211.3669" id="Floor" rx="2.3668" ry="2.3668" style="stroke:#000000;stroke-width:0.9467058502264639;" width="308.6261" x="737.4839" y="174.9492"/><ellipse cx="871.2061" cy="188.2031" fill="#FFFFFF" rx="8.5204" ry="8.5204" style="stroke:#000000;stroke-width:0.9467058502264639;"/><path d="M873.4249,184.1056 C872.5374,183.6914 871.9753,183.5583 871.1469,183.5583 C868.6618,183.5583 866.7684,185.5257 866.7684,188.0995 L866.7684,189.1646 C866.7684,191.6053 868.7653,193.3952 871.5019,193.3952 C872.6557,193.3952 873.7503,193.1141 874.4604,192.5964 C875.0077,192.2118 875.3183,191.7828 875.3183,191.413 C875.3183,190.984 874.9485,190.6142 874.5047,190.6142 C874.2976,190.6142 874.1053,190.6882 873.9278,190.8657 C873.4989,191.3243 873.4989,191.3243 873.3214,191.413 C872.922,191.6645 872.2711,191.7828 871.5463,191.7828 C869.6085,191.7828 868.3807,190.7474 868.3807,189.135 L868.3807,188.0995 C868.3807,186.4132 869.5641,185.1707 871.2061,185.1707 C871.7534,185.1707 872.3303,185.3186 872.774,185.5553 C873.2326,185.8215 873.3953,186.0286 873.4841,186.4132 C873.5432,186.7978 873.5728,186.9162 873.706,187.0345 C873.8391,187.1676 874.061,187.2712 874.2681,187.2712 C874.5195,187.2712 874.771,187.138 874.9337,186.931 C875.0373,186.783 875.0668,186.6055 875.0668,186.2061 L875.0668,184.86 C875.0668,184.4459 875.0521,184.3275 874.9633,184.1796 C874.8154,183.9281 874.5491,183.795 874.2681,183.795 C873.987,183.795 873.7947,183.8837 873.5876,184.1796 L873.4249,184.1056 Z " fill="#000000"/><text fill="#000000" font-family="Verdana" font-size="13.2539" lengthAdjust="spacing" textLength="34.0814" x="887.7734" y="192.7915">Floor</text><line style="stroke:#000000;stroke-width:0.9467058502264639;" x1="738.4306" x2="1045.1633" y1="201.457" y2="201.457"/><text fill="#000000" font-family="Verdana" font-size="13.2539" lengthAdjust="spacing" textLength="192.1813" x="743.1641" y="217.5463">-stairRoomNumber : Integer</text><text fill="#000000" font-family="Verdana" font-size="13.2539" lengthAdjust="spacing" textLength="155.2598" x="743.1641" y="232.9747">-visibleStairs : Boolean</text><text fill="#000000" font-family="Verdana" font-size="13.2539" lengthAdjust="spacing" textLength="156.2065" x="743.1641" y="248.403">-items : Vector&lt;Item&gt;</text><text fill="#000000" font-family="Verdana" font-size="13.2539" lengthAdjust="spacing" textLength="210.1687" x="743.1641" y="263.8314">-enemies : Vector&lt;Character&gt;</text><line style="stroke:#000000;stroke-width:0.9467058502264639;" x1="738.4306" x2="1045.1633" y1="270.744" y2="270.744"/><text fill="#000000" font-family="Verdana" font-size="13.2539" lengthAdjust="spacing" textLength="159.0466" x="743.1641" y="286.8334">+generateFloor() : Void</text><text fill="#000000" font-family="Verdana" font-size="13.2539" lengthAdjust="spacing" textLength="188.3945" x="743.1641" y="302.2617">+spawnPlayer(Player) : Void</text><text fill="#000000" font-family="Verdana" font-size="13.2539" lengthAdjust="spacing" textLength="143.8993" x="743.1641" y="317.6901">+spawnStairs() : Void</text><text fill="#000000" font-family="Verdana" font-size="13.2539" lengthAdjust="spacing" textLength="143.8993" x="743.1641" y="333.1184">+spawnItems() : Void</text><text fill="#000000" font-family="Verdana" font-size="13.2539" lengthAdjust="spacing" textLength="162.8334" x="743.1641" y="348.5468">+spawnEnemies() : Void</text><text fill="#000000" font-family="Verdana" font-size="13.2539" lengthAdjust="spacing" textLength="197.8615" x="743.1641" y="363.9751">+generateBarrierSuit() : Void</text><text fill="#000000" font-family="Verdana" font-size="13.2539" lengthAdjust="spacing" textLength="297.2656" x="743.1641" y="379.4035">+operator &lt;&lt; (ostream&amp;, Floor) : ostream&amp;</text></g><!--MD5=[e4b4f98d0c0cd14ef16df5a312c630e5]
class BoostAtk--><g id="elem_BoostAtk"><rect codeLine="80" fill="#FFFFFF" height="57.0834" id="BoostAtk" rx="2.3668" ry="2.3668" style="stroke:#000000;stroke-width:0.9467058502264639;" width="158.0999" x="2920.1142" y="979.6492"/><ellipse cx="2963.426" cy="992.9031" fill="#FFFFFF" rx="8.5204" ry="8.5204" style="stroke:#000000;stroke-width:0.9467058502264639;"/><path d="M2965.6448,988.8056 C2964.7573,988.3914 2964.1952,988.2583 2963.3668,988.2583 C2960.8817,988.2583 2958.9883,990.2257 2958.9883,992.7995 L2958.9883,993.8646 C2958.9883,996.3053 2960.9853,998.0952 2963.7218,998.0952 C2964.8756,998.0952 2965.9703,997.8141 2966.6803,997.2964 C2967.2276,996.9118 2967.5382,996.4828 2967.5382,996.113 C2967.5382,995.684 2967.1684,995.3142 2966.7247,995.3142 C2966.5176,995.3142 2966.3253,995.3882 2966.1478,995.5657 C2965.7188,996.0242 2965.7188,996.0242 2965.5413,996.113 C2965.1419,996.3645 2964.491,996.4828 2963.7662,996.4828 C2961.8284,996.4828 2960.6007,995.4473 2960.6007,993.835 L2960.6007,992.7995 C2960.6007,991.1132 2961.784,989.8706 2963.426,989.8706 C2963.9733,989.8706 2964.5502,990.0186 2964.994,990.2552 C2965.4525,990.5215 2965.6152,990.7286 2965.704,991.1132 C2965.7632,991.4978 2965.7928,991.6161 2965.9259,991.7345 C2966.059,991.8676 2966.2809,991.9711 2966.488,991.9711 C2966.7395,991.9711 2966.9909,991.838 2967.1536,991.6309 C2967.2572,991.483 2967.2868,991.3055 2967.2868,990.9061 L2967.2868,989.56 C2967.2868,989.1458 2967.272,989.0275 2967.1832,988.8796 C2967.0353,988.6281 2966.769,988.495 2966.488,988.495 C2966.2069,988.495 2966.0146,988.5837 2965.8075,988.8796 L2965.6448,988.8056 Z " fill="#000000"/><text fill="#000000" font-family="Verdana" font-size="13.2539" lengthAdjust="spacing" textLength="64.376" x="2979.9933" y="997.4914">BoostAtk</text><line style="stroke:#000000;stroke-width:0.9467058502264639;" x1="2921.0609" x2="3077.2674" y1="1006.1569" y2="1006.1569"/><line style="stroke:#000000;stroke-width:0.9467058502264639;" x1="2921.0609" x2="3077.2674" y1="1013.7306" y2="1013.7306"/><text fill="#000000" font-family="Verdana" font-size="13.2539" lengthAdjust="spacing" textLength="146.7394" x="2925.7944" y="1029.82">+updateStats() : Void</text></g><!--MD5=[c17b02809f73d63b15708e8c22337f8e]
class WoundAtk--><g id="elem_WoundAtk"><rect codeLine="85" fill="#FFFFFF" height="57.0834" id="WoundAtk" rx="2.3668" ry="2.3668" style="stroke:#000000;stroke-width:0.9467058502264639;" width="158.0999" x="2728.8796" y="979.6492"/><ellipse cx="2768.8779" cy="992.9031" fill="#FFFFFF" rx="8.5204" ry="8.5204" style="stroke:#000000;stroke-width:0.9467058502264639;"/><path d="M2771.0968,988.8056 C2770.2092,988.3914 2769.6471,988.2583 2768.8188,988.2583 C2766.3337,988.2583 2764.4403,990.2257 2764.4403,992.7995 L2764.4403,993.8646 C2764.4403,996.3053 2766.4372,998.0952 2769.1738,998.0952 C2770.3276,998.0952 2771.4222,997.8141 2772.1322,997.2964 C2772.6796,996.9118 2772.9902,996.4828 2772.9902,996.113 C2772.9902,995.684 2772.6204,995.3142 2772.1766,995.3142 C2771.9695,995.3142 2771.7772,995.3882 2771.5997,995.5657 C2771.1707,996.0242 2771.1707,996.0242 2770.9932,996.113 C2770.5938,996.3645 2769.943,996.4828 2769.2182,996.4828 C2767.2804,996.4828 2766.0526,995.4473 2766.0526,993.835 L2766.0526,992.7995 C2766.0526,991.1132 2767.236,989.8706 2768.8779,989.8706 C2769.4252,989.8706 2770.0021,990.0186 2770.4459,990.2552 C2770.9045,990.5215 2771.0672,990.7286 2771.1559,991.1132 C2771.2151,991.4978 2771.2447,991.6161 2771.3778,991.7345 C2771.511,991.8676 2771.7328,991.9711 2771.9399,991.9711 C2772.1914,991.9711 2772.4429,991.838 2772.6056,991.6309 C2772.7091,991.483 2772.7387,991.3055 2772.7387,990.9061 L2772.7387,989.56 C2772.7387,989.1458 2772.7239,989.0275 2772.6352,988.8796 C2772.4873,988.6281 2772.221,988.495 2771.9399,988.495 C2771.6589,988.495 2771.4666,988.5837 2771.2595,988.8796 L2771.0968,988.8056 Z " fill="#000000"/><text fill="#000000" font-family="Verdana" font-size="13.2539" lengthAdjust="spacing" textLength="71.0029" x="2785.4453" y="997.4914">WoundAtk</text><line style="stroke:#000000;stroke-width:0.9467058502264639;" x1="2729.8263" x2="2886.0328" y1="1006.1569" y2="1006.1569"/><line style="stroke:#000000;stroke-width:0.9467058502264639;" x1="2729.8263" x2="2886.0328" y1="1013.7306" y2="1013.7306"/><text fill="#000000" font-family="Verdana" font-size="13.2539" lengthAdjust="spacing" textLength="146.7394" x="2734.5598" y="1029.82">+updateStats() : Void</text></g><!--MD5=[b5ce1376e3134bb1a8079a51e83d20fe]
class BoostDef--><g id="elem_BoostDef"><rect codeLine="90" fill="#FFFFFF" height="57.0834" id="BoostDef" rx="2.3668" ry="2.3668" style="stroke:#000000;stroke-width:0.9467058502264639;" width="158.0999" x="2537.645" y="979.6492"/><ellipse cx="2580.9568" cy="992.9031" fill="#FFFFFF" rx="8.5204" ry="8.5204" style="stroke:#000000;stroke-width:0.9467058502264639;"/><path d="M2583.1757,988.8056 C2582.2881,988.3914 2581.726,988.2583 2580.8977,988.2583 C2578.4126,988.2583 2576.5191,990.2257 2576.5191,992.7995 L2576.5191,993.8646 C2576.5191,996.3053 2578.5161,998.0952 2581.2527,998.0952 C2582.4065,998.0952 2583.5011,997.8141 2584.2111,997.2964 C2584.7584,996.9118 2585.0691,996.4828 2585.0691,996.113 C2585.0691,995.684 2584.6993,995.3142 2584.2555,995.3142 C2584.0484,995.3142 2583.8561,995.3882 2583.6786,995.5657 C2583.2496,996.0242 2583.2496,996.0242 2583.0721,996.113 C2582.6727,996.3645 2582.0219,996.4828 2581.297,996.4828 C2579.3593,996.4828 2578.1315,995.4473 2578.1315,993.835 L2578.1315,992.7995 C2578.1315,991.1132 2579.3149,989.8706 2580.9568,989.8706 C2581.5041,989.8706 2582.081,990.0186 2582.5248,990.2552 C2582.9834,990.5215 2583.1461,990.7286 2583.2348,991.1132 C2583.294,991.4978 2583.3236,991.6161 2583.4567,991.7345 C2583.5898,991.8676 2583.8117,991.9711 2584.0188,991.9711 C2584.2703,991.9711 2584.5218,991.838 2584.6845,991.6309 C2584.788,991.483 2584.8176,991.3055 2584.8176,990.9061 L2584.8176,989.56 C2584.8176,989.1458 2584.8028,989.0275 2584.7141,988.8796 C2584.5661,988.6281 2584.2999,988.495 2584.0188,988.495 C2583.7378,988.495 2583.5455,988.5837 2583.3384,988.8796 L2583.1757,988.8056 Z " fill="#000000"/><text fill="#000000" font-family="Verdana" font-size="13.2539" lengthAdjust="spacing" textLength="64.376" x="2597.5242" y="997.4914">BoostDef</text><line style="stroke:#000000;stroke-width:0.9467058502264639;" x1="2538.5917" x2="2694.7982" y1="1006.1569" y2="1006.1569"/><line style="stroke:#000000;stroke-width:0.9467058502264639;" x1="2538.5917" x2="2694.7982" y1="1013.7306" y2="1013.7306"/><text fill="#000000" font-family="Verdana" font-size="13.2539" lengthAdjust="spacing" textLength="146.7394" x="2543.3253" y="1029.82">+updateStats() : Void</text></g><!--MD5=[0928a1f0e56307e64bd4c22dc74e8a38]
class WoundDef--><g id="elem_WoundDef"><rect codeLine="94" fill="#FFFFFF" height="57.0834" id="WoundDef" rx="2.3668" ry="2.3668" style="stroke:#000000;stroke-width:0.9467058502264639;" width="158.0999" x="2346.4104" y="979.6492"/><ellipse cx="2386.4088" cy="992.9031" fill="#FFFFFF" rx="8.5204" ry="8.5204" style="stroke:#000000;stroke-width:0.9467058502264639;"/><path d="M2388.6276,988.8056 C2387.7401,988.3914 2387.178,988.2583 2386.3496,988.2583 C2383.8645,988.2583 2381.9711,990.2257 2381.9711,992.7995 L2381.9711,993.8646 C2381.9711,996.3053 2383.968,998.0952 2386.7046,998.0952 C2387.8584,998.0952 2388.953,997.8141 2389.6631,997.2964 C2390.2104,996.9118 2390.521,996.4828 2390.521,996.113 C2390.521,995.684 2390.1512,995.3142 2389.7075,995.3142 C2389.5004,995.3142 2389.3081,995.3882 2389.1306,995.5657 C2388.7016,996.0242 2388.7016,996.0242 2388.5241,996.113 C2388.1247,996.3645 2387.4738,996.4828 2386.749,996.4828 C2384.8112,996.4828 2383.5834,995.4473 2383.5834,993.835 L2383.5834,992.7995 C2383.5834,991.1132 2384.7668,989.8706 2386.4088,989.8706 C2386.9561,989.8706 2387.533,990.0186 2387.9768,990.2552 C2388.4353,990.5215 2388.598,990.7286 2388.6868,991.1132 C2388.746,991.4978 2388.7755,991.6161 2388.9087,991.7345 C2389.0418,991.8676 2389.2637,991.9711 2389.4708,991.9711 C2389.7222,991.9711 2389.9737,991.838 2390.1364,991.6309 C2390.24,991.483 2390.2696,991.3055 2390.2696,990.9061 L2390.2696,989.56 C2390.2696,989.1458 2390.2548,989.0275 2390.166,988.8796 C2390.0181,988.6281 2389.7518,988.495 2389.4708,988.495 C2389.1897,988.495 2388.9974,988.5837 2388.7903,988.8796 L2388.6276,988.8056 Z " fill="#000000"/><text fill="#000000" font-family="Verdana" font-size="13.2539" lengthAdjust="spacing" textLength="71.0029" x="2402.9761" y="997.4914">WoundDef</text><line style="stroke:#000000;stroke-width:0.9467058502264639;" x1="2347.3572" x2="2503.5636" y1="1006.1569" y2="1006.1569"/><line style="stroke:#000000;stroke-width:0.9467058502264639;" x1="2347.3572" x2="2503.5636" y1="1013.7306" y2="1013.7306"/><text fill="#000000" font-family="Verdana" font-size="13.2539" lengthAdjust="spacing" textLength="146.7394" x="2352.0907" y="1029.82">+updateStats() : Void</text></g><!--MD5=[d028b69556776b8cc77fe2b40436bca4]
reverse link Character to Player--><g id="link_Character_Player"><path codeLine="38" d="M2499.0668,482.1732 C2499.0668,482.1732 2499.0668,548.898 2499.0668,548.898 C2499.0668,548.898 2519.0139,548.898 2543.7134,548.898 " fill="none" id="Character-backto-Player" style="stroke:#000000;stroke-width:0.9467058502264639;"/><polygon fill="none" points="2492.4398,482.1732,2499.0668,463.2391,2505.6937,482.1732,2492.4398,482.1732" style="stroke:#000000;stroke-width:0.9467058502264639;"/></g><!--MD5=[1a5e42fe08df60c271858a4aebb9d8af]
reverse link Player to Human--><g id="link_Player_Human"><path codeLine="52" d="M2748.3628,618.0075 C2748.3628,618.0075 3064.4868,618.0075 3064.4868,618.0075 C3064.4868,618.0075 3064.4868,763.8599 3064.4868,819.1248 " fill="none" id="Player-backto-Human" style="stroke:#000000;stroke-width:0.9467058502264639;"/><polygon fill="none" points="2748.3628,624.6345,2729.4287,618.0075,2748.3628,611.3806,2748.3628,624.6345" style="stroke:#000000;stroke-width:0.9467058502264639;"/></g><!--MD5=[ff76ca0b1c7ffe9feb00f1ad4d89a49c]
reverse link Player to Dwarf--><g id="link_Player_Dwarf"><path codeLine="57" d="M2524.6089,681.4368 C2524.6089,681.4368 2392.3257,681.4368 2392.3257,681.4368 C2392.3257,681.4368 2392.3257,765.5971 2392.3257,811.2936 " fill="none" id="Player-backto-Dwarf" style="stroke:#000000;stroke-width:0.9467058502264639;"/><polygon fill="none" points="2524.6089,674.8099,2543.543,681.4368,2524.6089,688.0638,2524.6089,674.8099" style="stroke:#000000;stroke-width:0.9467058502264639;"/></g><!--MD5=[8c22972b98ed9e5294ef6ba4dd0dd384]
reverse link Player to Elf--><g id="link_Player_Elf"><path codeLine="62" d="M2582.8502,719.6071 C2582.8502,719.6071 2582.8502,811.5123 2582.8502,811.5123 " fill="none" id="Player-backto-Elf" style="stroke:#000000;stroke-width:0.9467058502264639;"/><polygon fill="none" points="2576.2233,719.6071,2582.8502,700.673,2589.4772,719.6071,2576.2233,719.6071" style="stroke:#000000;stroke-width:0.9467058502264639;"/></g><!--MD5=[a289ba5c61c998e1ba009b691539ec4d]
reverse link Player to Orc--><g id="link_Player_Orc"><path codeLine="67" d="M2680.1243,719.6071 C2680.1243,719.6071 2680.1243,811.5123 2680.1243,811.5123 " fill="none" id="Player-backto-Orc" style="stroke:#000000;stroke-width:0.9467058502264639;"/><polygon fill="none" points="2673.4973,719.6071,2680.1243,700.673,2686.7512,719.6071,2673.4973,719.6071" style="stroke:#000000;stroke-width:0.9467058502264639;"/></g><!--MD5=[60e6b09200e1fa3b443ac1a9d5606bc6]
reverse link Player to Decorator--><g id="link_Player_Decorator"><path codeLine="73" d="M2704.7386,719.5749 C2704.7386,719.5749 2704.7386,808.2954 2704.7386,808.2954 C2704.7386,808.2954 2778.0326,808.2954 2838.4419,808.2954 " fill="none" id="Player-backto-Decorator" style="stroke:#000000;stroke-width:0.9467058502264639;"/><polygon fill="none" points="2698.1117,719.5749,2704.7386,700.6408,2711.3656,719.5749,2698.1117,719.5749" style="stroke:#000000;stroke-width:0.9467058502264639;"/></g><!--MD5=[8995568ee0ccbf09fbdeaf7f62d7720d]
reverse link Decorator to BoostAtk--><g id="link_Decorator_BoostAtk"><path codeLine="79" d="M2957.5091,895.4066 C2957.5091,895.4066 2957.5091,979.4494 2957.5091,979.4494 " fill="none" id="Decorator-backto-BoostAtk" style="stroke:#000000;stroke-width:0.9467058502264639;"/><polygon fill="none" points="2950.8821,895.4066,2957.5091,876.4724,2964.136,895.4066,2950.8821,895.4066" style="stroke:#000000;stroke-width:0.9467058502264639;"/></g><!--MD5=[6b76586c5752bbd21e24709fbd3f306b]
reverse link Decorator to WoundAtk--><g id="link_Decorator_WoundAtk"><path codeLine="84" d="M2862.8385,895.4066 C2862.8385,895.4066 2862.8385,979.4494 2862.8385,979.4494 " fill="none" id="Decorator-backto-WoundAtk" style="stroke:#000000;stroke-width:0.9467058502264639;"/><polygon fill="none" points="2856.2116,895.4066,2862.8385,876.4724,2869.4654,895.4066,2856.2116,895.4066" style="stroke:#000000;stroke-width:0.9467058502264639;"/></g><!--MD5=[132af94ac45bffef607d652b525e337d]
reverse link Decorator to BoostDef--><g id="link_Decorator_BoostDef"><path codeLine="89" d="M2819.5646,874.5648 C2819.5646,874.5648 2675.6274,874.5648 2675.6274,874.5648 C2675.6274,874.5648 2675.6274,940.1924 2675.6274,979.4144 " fill="none" id="Decorator-backto-BoostDef" style="stroke:#000000;stroke-width:0.9467058502264639;"/><polygon fill="none" points="2819.5646,867.9379,2838.4987,874.5648,2819.5646,881.1918,2819.5646,867.9379" style="stroke:#000000;stroke-width:0.9467058502264639;"/></g><!--MD5=[e22b451e3c3bf191ae17b5860814b77f]
reverse link Decorator to WoundDef--><g id="link_Decorator_WoundDef"><path codeLine="93" d="M2819.6876,871.7247 C2819.6876,871.7247 2485.1029,871.7247 2485.1029,871.7247 C2485.1029,871.7247 2485.1029,939.4965 2485.1029,979.4721 " fill="none" id="Decorator-backto-WoundDef" style="stroke:#000000;stroke-width:0.9467058502264639;"/><polygon fill="none" points="2819.6876,865.0978,2838.6218,871.7247,2819.6876,878.3517,2819.6876,865.0978" style="stroke:#000000;stroke-width:0.9467058502264639;"/></g><!--MD5=[8745611a56d0a59784de31bd240d6211]
reverse link Character to Enemy--><g id="link_Character_Enemy"><path codeLine="99" d="M2352.564,482.2509 C2352.564,482.2509 2352.564,592.4465 2352.564,592.4465 C2352.564,592.4465 1790.0882,592.4465 1579.1622,592.4465 " fill="none" id="Character-backto-Enemy" style="stroke:#000000;stroke-width:0.9467058502264639;"/><polygon fill="none" points="2345.9371,482.2509,2352.564,463.3168,2359.191,482.2509,2345.9371,482.2509" style="stroke:#000000;stroke-width:0.9467058502264639;"/></g><!--MD5=[12f80ea5fc12175838914be9d46a46bd]
reverse link Enemy to Vampire--><g id="link_Enemy_Vampire"><path codeLine="107" d="M1598.1625,627.4746 C1598.1625,627.4746 1937.9069,627.4746 1937.9069,627.4746 C1937.9069,627.4746 1937.9069,753.3335 1937.9069,811.3467 " fill="none" id="Enemy-backto-Vampire" style="stroke:#000000;stroke-width:0.9467058502264639;"/><polygon fill="none" points="1598.1625,634.1015,1579.2284,627.4746,1598.1625,620.8477,1598.1625,634.1015" style="stroke:#000000;stroke-width:0.9467058502264639;"/></g><!--MD5=[b15ab46dcc025c5e6962d8dc1173acab]
reverse link Enemy to Werewolf--><g id="link_Enemy_Werewolf"><path codeLine="112" d="M1598.2762,609.4872 C1598.2762,609.4872 2156.5959,609.4872 2156.5959,609.4872 C2156.5959,609.4872 2156.5959,749.4842 2156.5959,811.2804 " fill="none" id="Enemy-backto-Werewolf" style="stroke:#000000;stroke-width:0.9467058502264639;"/><polygon fill="none" points="1598.2762,616.1141,1579.342,609.4872,1598.2762,602.8603,1598.2762,616.1141" style="stroke:#000000;stroke-width:0.9467058502264639;"/></g><!--MD5=[750bfcd784e6ab1a9b32f9be6524cb50]
reverse link Enemy to Goblin--><g id="link_Enemy_Goblin"><path codeLine="117" d="M1402.7625,609.4872 C1402.7625,609.4872 792.3928,609.4872 792.3928,609.4872 C792.3928,609.4872 792.3928,749.4842 792.3928,811.2804 " fill="none" id="Enemy-backto-Goblin" style="stroke:#000000;stroke-width:0.9467058502264639;"/><polygon fill="none" points="1402.7625,602.8603,1421.6966,609.4872,1402.7625,616.1141,1402.7625,602.8603" style="stroke:#000000;stroke-width:0.9467058502264639;"/></g><!--MD5=[51158a5a14e51bcf04c3a5d4dcaaaf5a]
reverse link Enemy to Merchant--><g id="link_Enemy_Merchant"><path codeLine="122" d="M1402.7909,627.4746 C1402.7909,627.4746 1088.0017,627.4746 1088.0017,627.4746 C1088.0017,627.4746 1088.0017,710.496 1088.0017,772.7627 " fill="none" id="Enemy-backto-Merchant" style="stroke:#000000;stroke-width:0.9467058502264639;"/><polygon fill="none" points="1402.7909,620.8477,1421.725,627.4746,1402.7909,634.1015,1402.7909,620.8477" style="stroke:#000000;stroke-width:0.9467058502264639;"/></g><!--MD5=[3b49607319a1c3263587d45e11d6020c]
reverse link Enemy to Dragon--><g id="link_Enemy_Dragon"><path codeLine="127" d="M1402.7909,644.5153 C1402.7909,644.5153 1334.1452,644.5153 1334.1452,644.5153 C1334.1452,644.5153 1334.1452,716.1819 1334.1452,772.7315 " fill="none" id="Enemy-backto-Dragon" style="stroke:#000000;stroke-width:0.9467058502264639;"/><polygon fill="none" points="1402.7909,637.8884,1421.725,644.5153,1402.7909,651.1422,1402.7909,637.8884" style="stroke:#000000;stroke-width:0.9467058502264639;"/></g><!--MD5=[17eab5224a9132abebee4830630418cf]
reverse link Dragon to Treasure--><g id="link_Dragon_Treasure"><path codeLine="128" d="M1268.5858,919.8978 C1268.5858,919.8978 1268.5858,972.0755 1268.5858,972.0755 C1268.5858,972.0755 1161.343,972.0755 1076.5182,972.0755 " fill="none" id="Dragon-backto-Treasure" style="stroke:#000000;stroke-width:0.9467058502264639;"/><polygon fill="none" points="1268.5858,907.5907,1264.799,913.2709,1268.5858,918.9511,1272.3727,913.2709,1268.5858,907.5907" style="stroke:#000000;stroke-width:0.9467058502264639;"/></g><!--MD5=[0cb05c9781fe531cbbcea5c93333d86f]
reverse link Enemy to Phoenix--><g id="link_Enemy_Phoenix"><path codeLine="139" d="M1500.5288,681.0676 C1500.5288,681.0676 1500.5288,811.4726 1500.5288,811.4726 " fill="none" id="Enemy-backto-Phoenix" style="stroke:#000000;stroke-width:0.9467058502264639;"/><polygon fill="none" points="1493.9018,681.0676,1500.5288,662.1335,1507.1557,681.0676,1493.9018,681.0676" style="stroke:#000000;stroke-width:0.9467058502264639;"/></g><!--MD5=[aa2c6c00d82a5ebc9340456780ded3ee]
reverse link Enemy to Troll--><g id="link_Enemy_Troll"><path codeLine="144" d="M1598.1057,644.5153 C1598.1057,644.5153 1719.2178,644.5153 1719.2178,644.5153 C1719.2178,644.5153 1719.2178,757.3636 1719.2178,811.5833 " fill="none" id="Enemy-backto-Troll" style="stroke:#000000;stroke-width:0.9467058502264639;"/><polygon fill="none" points="1598.1057,651.1422,1579.1716,644.5153,1598.1057,637.8884,1598.1057,651.1422" style="stroke:#000000;stroke-width:0.9467058502264639;"/></g><!--MD5=[a58fc3440a9d5f23bb281634f28e0d2a]
reverse link Item to Treasure--><g id="link_Item_Treasure"><path codeLine="173" d="M699.6772,708.8913 C699.6772,708.8913 919.0147,708.8913 919.0147,708.8913 C919.0147,708.8913 919.0147,880.6919 919.0147,963.9083 " fill="none" id="Item-backto-Treasure" style="stroke:#000000;stroke-width:0.9467058502264639;"/><polygon fill="none" points="699.6772,715.5182,680.743,708.8913,699.6772,702.2644,699.6772,715.5182" style="stroke:#000000;stroke-width:0.9467058502264639;"/></g><!--MD5=[06b875333e4a27a87dc899815fbc841f]
reverse link Item to Potion--><g id="link_Item_Potion"><path codeLine="180" d="M441.4802,735.1075 C441.4802,735.1075 441.4802,804.5086 441.4802,804.5086 C441.4802,804.5086 306.833,804.5086 211.371,804.5086 " fill="none" id="Item-backto-Potion" style="stroke:#000000;stroke-width:0.9467058502264639;"/><polygon fill="none" points="434.8532,735.1075,441.4802,716.1734,448.1071,735.1075,434.8532,735.1075" style="stroke:#000000;stroke-width:0.9467058502264639;"/></g><!--MD5=[419097763413107eb0e9f94984e1c707]
reverse link Item to Compass--><g id="link_Item_Compass"><path codeLine="187" d="M452.2101,735.17 C452.2101,735.17 452.2101,840.4834 452.2101,840.4834 C452.2101,840.4834 443.099,840.4834 430.0014,840.4834 " fill="none" id="Item-backto-Compass" style="stroke:#000000;stroke-width:0.9467058502264639;"/><polygon fill="none" points="445.5832,735.1709,452.2101,716.2359,458.8371,735.17,445.5832,735.1709" style="stroke:#000000;stroke-width:0.9467058502264639;"/></g><!--MD5=[1773cfb7c50d51e83a5bc0ae515e369a]
reverse link Item to BarrierSuit--><g id="link_Item_BarrierSuit"><path codeLine="191" d="M555.7163,734.9617 C555.7163,734.9617 555.7163,811.5227 555.7163,811.5227 " fill="none" id="Item-backto-BarrierSuit" style="stroke:#000000;stroke-width:0.9467058502264639;"/><polygon fill="none" points="549.0894,734.9617,555.7163,716.0276,562.3433,734.9617,549.0894,734.9617" style="stroke:#000000;stroke-width:0.9467058502264639;"/></g><!--MD5=[782ec04b4fd262ad7a0abd3dac0efb40]
reverse link Game to Floor--><g id="link_Game_Floor"><path codeLine="199" d="M1281.6504,280.9803 C1281.6504,280.9803 1046.2709,280.9803 1046.2709,280.9803 " fill="none" id="Game-backto-Floor" style="stroke:#000000;stroke-width:0.9467058502264639;"/><polygon fill="#000000" points="1293.9576,280.9803,1288.2773,277.1934,1282.5971,280.9803,1288.2773,284.7671,1293.9576,280.9803" style="stroke:#000000;stroke-width:0.9467058502264639;"/></g><!--MD5=[bbc6ee62d3d47812e486fb9dc1de45ab]
reverse link Game to Player--><g id="link_Game_Player"><path codeLine="200" d="M1600.8796,398.5337 C1600.8796,398.5337 1600.8796,561.2052 1600.8796,561.2052 C1600.8796,561.2052 2289.5418,561.2052 2543.7513,561.2052 " fill="none" id="Game-backto-Player" style="stroke:#000000;stroke-width:0.9467058502264639;"/><polygon fill="#000000" points="1600.8796,386.2265,1597.0928,391.9067,1600.8796,397.587,1604.6664,391.9067,1600.8796,386.2265" style="stroke:#000000;stroke-width:0.9467058502264639;"/></g><!--MD5=[2b5caa8ac04299de3efaa784958d6002]
reverse link Floor to Enemy--><g id="link_Floor_Enemy"><path codeLine="216" d="M990.9643,398.4229 C990.9643,398.4229 990.9643,592.4465 990.9643,592.4465 C990.9643,592.4465 1278.7156,592.4465 1421.7439,592.4465 " fill="none" id="Floor-backto-Enemy" style="stroke:#000000;stroke-width:0.9467058502264639;"/><polygon fill="none" points="990.9643,386.1157,987.1775,391.796,990.9643,397.4762,994.7512,391.796,990.9643,386.1157" style="stroke:#000000;stroke-width:0.9467058502264639;"/></g><!--MD5=[03b3c695e232651f192b6fd18fc4fcee]
reverse link Floor to Item--><g id="link_Floor_Item"><path codeLine="217" d="M847.3017,398.5214 C847.3017,398.5214 847.3017,528.0705 847.3017,528.0705 C847.3017,528.0705 760.0969,528.0705 681.0668,528.0705 " fill="none" id="Floor-backto-Item" style="stroke:#000000;stroke-width:0.9467058502264639;"/><polygon fill="none" points="847.3017,386.2142,843.5149,391.8944,847.3017,397.5747,851.0886,391.8944,847.3017,386.2142" style="stroke:#000000;stroke-width:0.9467058502264639;"/></g><!--MD5=[b926c8a165a2654f751dd87cc0828727]
@startuml
!theme plain
skinparam linetype ortho  
' left to right direction
skinparam groupInheritance 0
scale max 1920 width 
scale max 1080 height
skinparam classAttributeIconSize 0 

package "CC3K" #White {
        Title UML Diagram
        class Character {
            - hp : Integer
            - atk : Integer
            - def : Integer
            - xPos : Integer
            - yPos : Integer
            - symbol : Character


            + setHp(int) : Void
            + setAtk(int) : Void
            + setDef(int) : Void
            + setX(int) : Void
            + setY(int) : Void
            + getHp() : Integer
            + getAtk() : Integer
            + getDef() : Integer
            + getX() : Integer
            + getY() : Integer
            + getSymbol() : Character
            + move(Integer, Integer) : Void
            + attack(Character) : Void
            + takeDamage(Integer) : Void
            + isAlive() : Boolean
        }
        

            Character <|- - Player
            class Player {
                - gold : Integer
                - hasBarrierSuit : Bool
                
                + addGold(Integer)
                + getGold() : Integer
                + useGold() : void
                + updateStats()  : void
                + usePotion(Potion) : void
                + getSymbol() : Character

            }

            Player <|-down- Human
            class Human {

            }
            
            Player <|-down- Dwarf
            class Dwarf {
                + addGold() : Integer
            }

            Player <|-down- Elf
            class Elf {
                + updateStats() : void 
            }

            Player <|-down- Orc
            class Orc {
                + addGold() : Integer
            }
        
        
            Player <|- - Decorator
            class Decorator {
                # component : Player
                + updateStats();          
            }
            together {
                Decorator <|- - BoostAtk
                Class BoostAtk {
                    + updateStats() : Void
                }

                Decorator <|- - WoundAtk
                Class WoundAtk{
                    + updateStats() : Void
                }

                Decorator <|- - BoostDef
                Class BoostDef {
                    + updateStats() : Void
                }
                Decorator <|- - WoundDef
                Class WoundDef {
                    + updateStats() : Void
                }
            }

            Character <|- - Enemy
            class Enemy {
                - hostile : bool

                + isHostile() : bool
                + makeHostile() : void
            }

            Enemy <|- - Vampire
            Class Vampire {
                + getSymbol() : Character
            }

            Enemy <|- - Werewolf
            Class Werewolf {
                + getSymbol() : Character
            } 

            Enemy <|- - Goblin
            Class Goblin {
                + getSymbol() : Character
            }

            Enemy <|- - Merchant
            Class Merchant {
                + getSymbol() : Character
            }

            Dragon -up-|>  Enemy
            Dragon o- - Treasure
            Class Dragon { 
                - booty : *Treasure

                + getSymbol() : Character
                + getHoard() : Hoard
                + move() : void        
                + rewardAmount() : Integer
                + takeDamage(Integer) : Void   
            }

            Enemy <|- - Phoenix
            Class Phoenix { 
                + getSymbol() : Character
            }

            Troll -up-|>  Enemy
            Class Troll{ 
                + getSymbol() : Character
            }

            Class Merchant { 
                - hostile : Boolean
                + isHostile() : Boolean
                + makeHostile() : Boolean
                + rewardAmount() : Integer
                + getSymbol() : Character
            }
        


        class Item { 
            - xPos : Integer
            - yPos : Integer
            - symbol : Character
            - guarded : Boolean
            + getX() : Integer
            + getY() : Integer
            + getSymbol() : Character = 0
            + withinRange(Character) : Boolean
            + isGuarded() : Boolean
            + setUnguarded() : Void

        }

        Item <|-down- Treasure
        class Treasure {
            -goldAmount : Integer
            + getSymbol() : Character
            + getGoldAmount() : Integer            
        }

        Item <|-down- Potion
        class Potion {
            - abilitiesVisible : Boolean
            + consume() : void
            + getSymbol() : Character
        }

        Item <|-down- Compass
        class Compass {
            + getSymbol() : Character
        }
        Item <|-down- BarrierSuit
        class BarrierSuit {
            + getSymbol() : Character
        }
    



        Game *-[norank]- Floor
        Game *-[norank]- Player

        class Game  {
            - floor : *Floor
            - barrierSuitFloor  : Integer
            - playa : Player *
            + init(race) : Void
            + generateFloor() : Floor
            + move(integer, integer) : Void
            + attack() : Void
            + usePotion(): Void
            + restart() : Void
            + quit() : Void
            + operator << (ostream&, Game) : ostream&
        }

        Floor o- - Enemy
        Floor o- - Item
        class Floor {
            - stairRoomNumber : Integer
            - visibleStairs : Boolean
            - items : Vector<Item>
            - enemies : Vector<Character>
            + generateFloor() : Void
            + spawnPlayer(Player) : Void
            + spawnStairs() : Void
            + spawnItems() : Void    
            + spawnEnemies() : Void
            + generateBarrierSuit() : Void
            + operator << (ostream&, Floor) : ostream& 
        }


}
@enduml

@startuml







<style>
  root {
    BackgroundColor white
    FontColor black
    FontName Verdana
    HyperLinkColor blue
    LineColor black
    LineThickness 1
    Margin 5
  }
  caption {
    LineThickness 0
  }
  footer {
    LineThickness 0
  }
  header {
    LineThickness 0
  }
  node {
    MaximumWidth 300
  }
  title {
    FontSize 22
    LineThickness 0
  }
</style>

skinparam ArrowLollipopColor black
skinparam BackgroundColor white
skinparam DefaultFontName Verdana
skinparam DefaultMonospacedFontName Courier
skinparam LifelineStrategy nosolid
skinparam ParticipantPadding 10
skinparam SequenceLifeLineBorderColor black
skinparam Shadowing false
skinparam UseBetaStyle true

skinparam Activity {
  BackgroundColor white
  BarColor black
  BorderColor black
  FontColor black
  FontName Verdana
}
skinparam Boundary {
  FontColor black
}
skinparam Box {
  Padding 5
}
skinparam CircledCharacter {
  FontColor black
  FontName Courier
  Radius 9
}
skinparam Class {
  BackgroundColor white
  BorderColor black
  FontColor black
  FontName Verdana
}
skinparam ClassAttribute {
  FontColor black
  FontName Verdana
}
skinparam ClassStereotype {
  FontColor black
  FontName Verdana
}
skinparam Footer {
  FontColor black
  FontName Verdana
}
skinparam Header {
  FontColor black
  FontName Verdana
}
skinparam Hyperlink {
  Color blue
}
skinparam IconPackage {
  Color black
  BackgroundColor white
}
skinparam IconPrivate {
  Color black
  BackgroundColor white
}
skinparam IconProtected {
  Color black
  BackgroundColor white
}
skinparam IconPublic {
  Color black
  BackgroundColor white
}
skinparam Note {
  FontColor black
  FontName Verdana
}
skinparam Object {
  BorderColor black
}
skinparam Package {
  BorderColor black
  FontColor black
  FontName Verdana
}
skinparam State {
  BackgroundColor white
  BorderColor black
}
skinparam StereotypeA {
  BackgroundColor white
  BorderColor black
}
skinparam StereotypeC {
  BackgroundColor white
  BorderColor black
}
skinparam StereotypeE {
  BackgroundColor white
  BorderColor black
}
skinparam StereotypeI {
  BackgroundColor white
  BorderColor black
}
skinparam StereotypeN {
  BackgroundColor white
  BorderColor black
}
skinparam UseCaseStereoType {
  FontColor black
  FontName Verdana
}
skinparam linetype ortho  
skinparam groupInheritance 0
scale max 1920 width 
scale max 1080 height
skinparam classAttributeIconSize 0 

package "CC3K" #White {
        Title UML Diagram
        class Character {
            - hp : Integer
            - atk : Integer
            - def : Integer
            - xPos : Integer
            - yPos : Integer
            - symbol : Character


            + setHp(int) : Void
            + setAtk(int) : Void
            + setDef(int) : Void
            + setX(int) : Void
            + setY(int) : Void
            + getHp() : Integer
            + getAtk() : Integer
            + getDef() : Integer
            + getX() : Integer
            + getY() : Integer
            + getSymbol() : Character
            + move(Integer, Integer) : Void
            + attack(Character) : Void
            + takeDamage(Integer) : Void
            + isAlive() : Boolean
        }
        

            Character <|- - Player
            class Player {
                - gold : Integer
                - hasBarrierSuit : Bool
                
                + addGold(Integer)
                + getGold() : Integer
                + useGold() : void
                + updateStats()  : void
                + usePotion(Potion) : void
                + getSymbol() : Character

            }

            Player <|-down- Human
            class Human {

            }
            
            Player <|-down- Dwarf
            class Dwarf {
                + addGold() : Integer
            }

            Player <|-down- Elf
            class Elf {
                + updateStats() : void 
            }

            Player <|-down- Orc
            class Orc {
                + addGold() : Integer
            }
        
        
            Player <|- - Decorator
            class Decorator {
                # component : Player
                + updateStats();          
            }
            together {
                Decorator <|- - BoostAtk
                Class BoostAtk {
                    + updateStats() : Void
                }

                Decorator <|- - WoundAtk
                Class WoundAtk{
                    + updateStats() : Void
                }

                Decorator <|- - BoostDef
                Class BoostDef {
                    + updateStats() : Void
                }
                Decorator <|- - WoundDef
                Class WoundDef {
                    + updateStats() : Void
                }
            }

            Character <|- - Enemy
            class Enemy {
                - hostile : bool

                + isHostile() : bool
                + makeHostile() : void
            }

            Enemy <|- - Vampire
            Class Vampire {
                + getSymbol() : Character
            }

            Enemy <|- - Werewolf
            Class Werewolf {
                + getSymbol() : Character
            } 

            Enemy <|- - Goblin
            Class Goblin {
                + getSymbol() : Character
            }

            Enemy <|- - Merchant
            Class Merchant {
                + getSymbol() : Character
            }

            Dragon -up-|>  Enemy
            Dragon o- - Treasure
            Class Dragon { 
                - booty : *Treasure

                + getSymbol() : Character
                + getHoard() : Hoard
                + move() : void        
                + rewardAmount() : Integer
                + takeDamage(Integer) : Void   
            }

            Enemy <|- - Phoenix
            Class Phoenix { 
                + getSymbol() : Character
            }

            Troll -up-|>  Enemy
            Class Troll{ 
                + getSymbol() : Character
            }

            Class Merchant { 
                - hostile : Boolean
                + isHostile() : Boolean
                + makeHostile() : Boolean
                + rewardAmount() : Integer
                + getSymbol() : Character
            }
        


        class Item { 
            - xPos : Integer
            - yPos : Integer
            - symbol : Character
            - guarded : Boolean
            + getX() : Integer
            + getY() : Integer
            + getSymbol() : Character = 0
            + withinRange(Character) : Boolean
            + isGuarded() : Boolean
            + setUnguarded() : Void

        }

        Item <|-down- Treasure
        class Treasure {
            -goldAmount : Integer
            + getSymbol() : Character
            + getGoldAmount() : Integer            
        }

        Item <|-down- Potion
        class Potion {
            - abilitiesVisible : Boolean
            + consume() : void
            + getSymbol() : Character
        }

        Item <|-down- Compass
        class Compass {
            + getSymbol() : Character
        }
        Item <|-down- BarrierSuit
        class BarrierSuit {
            + getSymbol() : Character
        }
    



        Game *-[norank]- Floor
        Game *-[norank]- Player

        class Game  {
            - floor : *Floor
            - barrierSuitFloor  : Integer
            - playa : Player *
            + init(race) : Void
            + generateFloor() : Floor
            + move(integer, integer) : Void
            + attack() : Void
            + usePotion(): Void
            + restart() : Void
            + quit() : Void
            + operator << (ostream&, Game) : ostream&
        }

        Floor o- - Enemy
        Floor o- - Item
        class Floor {
            - stairRoomNumber : Integer
            - visibleStairs : Boolean
            - items : Vector<Item>
            - enemies : Vector<Character>
            + generateFloor() : Void
            + spawnPlayer(Player) : Void
            + spawnStairs() : Void
            + spawnItems() : Void    
            + spawnEnemies() : Void
            + generateBarrierSuit() : Void
            + operator << (ostream&, Floor) : ostream& 
        }


}
@enduml

PlantUML version 1.2022.7beta2(Unknown compile time)
(GPL source distribution)
Java Runtime: Java(TM) SE Runtime Environment
JVM: Java HotSpot(TM) 64-Bit Server VM
Default Encoding: UTF-8
Language: en
Country: US
--></g></svg>